<svg xmlns="http://www.w3.org/2000/svg" viewBox="0 0 16 16"><title>facebook</title><g id="レイヤー_2" data-name="レイヤー 2"><g id="レイヤー_1-2" data-name="レイヤー 1"><path d="M15.12,0H.88A.85.85,0,0,0,.26.26.88.88,0,0,0,0,.9V15.12a.85.85,0,0,0,.26.62A.85.85,0,0,0,.88,16H8.54V9.81H6.46V7.4H8.54V5.62a3.12,3.12,0,0,1,.87-2.38,3.09,3.09,0,0,1,2.24-.82c.44,0,.84,0,1.18,0l.69.06V4.69H12.23a1.14,1.14,0,0,0-1,.32,1.46,1.46,0,0,0-.22.84V7.4h2.4l-.32,2.41H11V16h4.08a.89.89,0,0,0,.88-.88V.9a.88.88,0,0,0-.26-.64A.85.85,0,0,0,15.12,0Z"/></g></g></svg>