<svg xmlns="http://www.w3.org/2000/svg" viewBox="0 0 16 16.02"><title>instagram</title><g id="レイヤー_2" data-name="レイヤー 2"><g id="レイヤー_1-2" data-name="レイヤー 1"><path d="M11.5,3.5a.57.57,0,0,0-.17.22.63.63,0,0,0-.05.29.59.59,0,0,0,.05.27.71.71,0,0,0,.17.24.61.61,0,0,0,.24.15.71.71,0,0,0,.27,0,.59.59,0,0,0,.27,0,.79.79,0,0,0,.24-.15.76.76,0,0,0,.15-.26A.65.65,0,0,0,12.72,4a.63.63,0,0,0-.05-.29.62.62,0,0,0-.15-.22A.7.7,0,0,0,12,3.28.68.68,0,0,0,11.5,3.5ZM9.83,9.25a3.59,3.59,0,0,1-.65.57,2,2,0,0,1-.82.3A2.33,2.33,0,0,1,6.75,9.7a2,2,0,0,1-.87-1.41,2,2,0,0,1,.41-1.61,2.05,2.05,0,0,1,1.42-.86h.58a2.19,2.19,0,0,1,1.83,1.82,1.92,1.92,0,0,1,0,.86A2.49,2.49,0,0,1,9.83,9.25ZM8.58,4.37a2.5,2.5,0,0,0-.55,0,2.47,2.47,0,0,0-.54,0,3.23,3.23,0,0,0-1.35.49,3.6,3.6,0,0,0-1,1,3.67,3.67,0,0,0-.6,1.26,3.82,3.82,0,0,0-.09,1.43,3.53,3.53,0,0,0,.48,1.34,3.81,3.81,0,0,0,1,1.07,5.74,5.74,0,0,0,1,.53,3.33,3.33,0,0,0,1.14.2h.26a.49.49,0,0,0,.25-.07,3.6,3.6,0,0,0,1.34-.48,4,4,0,0,0,1.07-1,3.61,3.61,0,0,0,.6-1.29,3.52,3.52,0,0,0,0-1.41,3.4,3.4,0,0,0-1-2A3.54,3.54,0,0,0,8.58,4.37Zm6,7.28a2.79,2.79,0,0,1-.85,2,2.81,2.81,0,0,1-2.07.85H4.37A2.81,2.81,0,0,1,2.3,13.7a2.79,2.79,0,0,1-.85-2V4.37A2.82,2.82,0,0,1,2.3,2.31a2.82,2.82,0,0,1,2.07-.86h7.26a2.82,2.82,0,0,1,2.07.86,2.82,2.82,0,0,1,.85,2.06ZM11.63,0H4.37A4.28,4.28,0,0,0,2.66.34a4.51,4.51,0,0,0-1.38.94,4.37,4.37,0,0,0-.94,1.4A4.12,4.12,0,0,0,0,4.37v7.28a4.25,4.25,0,0,0,.34,1.69,4.32,4.32,0,0,0,.94,1.39,4.66,4.66,0,0,0,1.38.93A4.13,4.13,0,0,0,4.37,16h7.26a4.13,4.13,0,0,0,1.71-.36,4.66,4.66,0,0,0,1.38-.93,4.32,4.32,0,0,0,.94-1.39A4.25,4.25,0,0,0,16,11.65V4.37a4.12,4.12,0,0,0-.34-1.69,4.37,4.37,0,0,0-.94-1.4A4.51,4.51,0,0,0,13.34.34,4.28,4.28,0,0,0,11.63,0Z"/></g></g></svg>