<svg xmlns="http://www.w3.org/2000/svg" viewBox="0 0 86.981 6.414"><title>logo_s</title><g id="レイヤー_2" data-name="レイヤー 2"><g id="レイヤー_1-2" data-name="レイヤー 1"><path d="M59.336.537A.866.866,0,0,0,59.529.5l.012-.013V.477a.268.268,0,0,1,0-.049.186.186,0,0,1,0-.033A.123.123,0,0,0,59.5.366h-.018c-.07.007-.14.01-.21.011-.139.006-.263.006-.4.005-.073.005-.146.007-.219.005l-.115.007C58.43.4,58.272.4,58.072.4c-.414,0-.706,0-.879.013l-.024.008-.007.024a.145.145,0,0,1,0,.029.223.223,0,0,1,.009.068l0,.013a.16.16,0,0,0,.039.039c.209.012.38.029.513.05a.421.421,0,0,1,.138.06.53.53,0,0,1,.06.19c.019.162.027.487.027.974l-.008.862.026,1.283-.009.374v.859l0,.452a.361.361,0,0,1-.092.277,2.243,2.243,0,0,1-.734.165.088.088,0,0,0-.069.051l.007.116a.133.133,0,0,1,.036.024l.142,0c.292,0,.569,0,.739.009s.291-.01.386-.01c.113,0,.274-.009.482.006a.168.168,0,0,1,.045-.006c.174,0,.348-.008.52,0l.029-.007a.184.184,0,0,0,.034-.035v0a.636.636,0,0,1,.011-.1.34.34,0,0,0-.018-.054,1.1,1.1,0,0,0-.162-.031,1.224,1.224,0,0,1-.494-.13.181.181,0,0,1-.074-.089,4.139,4.139,0,0,1-.028-.622L58.7,4.081V1.15l0-.088a.479.479,0,0,1,.1-.35A.962.962,0,0,1,59.336.537Z"/><path d="M48.909,3.889a1.666,1.666,0,0,0-.5-.561A8.393,8.393,0,0,0,47.294,2.7a5.53,5.53,0,0,1-1.266-.746.761.761,0,0,1-.248-.548.876.876,0,0,1,.354-.688,1.369,1.369,0,0,1,.908-.295,1.407,1.407,0,0,1,.9.3,1.528,1.528,0,0,1,.48.775c.06-.008.12-.015.18-.019,0-.045,0-.1.007-.162l.019-.41,0-.037C48.622.847,48.612.827,48.6.807c-.028-.047-.058-.094-.087-.142C48.5.648,48.487.632,48.471.616a.183.183,0,0,1-.035-.045.224.224,0,0,1-.027-.034L48.357.483a.214.214,0,0,1-.052-.052A.291.291,0,0,0,48.274.4a.168.168,0,0,1-.045-.038.206.206,0,0,1-.046-.027.523.523,0,0,1-.058-.029l-.07-.025A3.06,3.06,0,0,0,47.2.176a2.158,2.158,0,0,0-1.43.445,1.367,1.367,0,0,0-.534,1.087,1.252,1.252,0,0,0,.15.623A2.316,2.316,0,0,0,46,2.987a8.482,8.482,0,0,0,1.086.6,3.909,3.909,0,0,1,1.111.723,1,1,0,0,1,.276.682,1.044,1.044,0,0,1-.182.561,1.177,1.177,0,0,1-.5.441,1.639,1.639,0,0,1-.706.152A1.621,1.621,0,0,1,45.96,5.7a1.577,1.577,0,0,1-.531-.875.191.191,0,0,1-.029-.059l-.021-.019-.015-.01-.029-.015-.018-.005-.011,0h-.027a.445.445,0,0,1-.052.011h-.006c-.007.008-.015.015-.023.023,0,.024,0,.049,0,.078a8.655,8.655,0,0,1-.073.892h0a.138.138,0,0,1,.008.027v0a.131.131,0,0,1,.006.027c.025.037.052.072.079.107a3.512,3.512,0,0,0,1.238.5c.14.014.281.022.424.022a2.8,2.8,0,0,0,1.207-.22,1.7,1.7,0,0,0,.725-.653,1.728,1.728,0,0,0,.269-.928A1.491,1.491,0,0,0,48.909,3.889Z"/><path d="M63.984,6.171a.363.363,0,0,0-.213-.083,2.349,2.349,0,0,1-1.288-.718l-.045-.043c-.2-.16-.391-.337-.585-.5-.105-.093-.21-.184-.315-.274s-.224-.183-.345-.279q-.822-.657-1.307-1.109c-.074-.07-.12-.114-.139-.129a.284.284,0,0,1-.055-.065l.72-.582,1.19-1a4.414,4.414,0,0,1,.563-.407A5.545,5.545,0,0,1,62.709.67a2.424,2.424,0,0,1,.452-.112l.074-.014a1.445,1.445,0,0,1,.156-.033h0A.2.2,0,0,1,63.424.5a.119.119,0,0,1,.02-.019l0-.021a.129.129,0,0,1,0-.028.181.181,0,0,1,0-.04V.382l0-.017L63.436.349a.136.136,0,0,1-.028-.011c-.047,0-.085-.005-.112-.005s-.1,0-.171.009L62.4.37c-.034,0-.078,0-.152-.006-.331-.01-.465,0-.594-.005l-.015,0-.017,0a.185.185,0,0,1-.023,0c-.114,0-.255-.005-.37-.01-.029.006-.03.015-.05.029a.1.1,0,0,0-.032.078.092.092,0,0,0,.043.077.776.776,0,0,0,.275.043c.169.009.27.024.34.03.051.005.091.009.142.017a.157.157,0,0,1,.063.015A.292.292,0,0,1,62,.714c-.031.049-.048.076-.068.1A6.381,6.381,0,0,1,61.2,1.5L59.931,2.532q-.632.471-.89.628a1.192,1.192,0,0,0-.184.129c.5.372.892.678,1.171.918l.845.71.549.438c.179.157.3.27.374.339l.125.122a.934.934,0,0,1,.152.174,1.016,1.016,0,0,1-.13.009c-.184.006-.355.057-.525.074-.15.016-.2,0-.241.035l0,.037a1.048,1.048,0,0,0,.014.16c.591,0,1.075-.031,1.518-.031.111,0,.251.006.42.017.286.02.5,0,.641,0,.034,0,.1,0,.183-.006a.2.2,0,0,1,.033-.024l.006-.043Z"/><path d="M86.96.33h-.07l-.73.022c-.018,0-.129-.007-.332-.022-.135-.01-.265-.015-.388-.015-.042,0-.085,0-.128,0l0,.016A.233.233,0,0,1,85.32.46.222.222,0,0,1,85.341.5a.159.159,0,0,1,.065.028.591.591,0,0,1,.146.057A1.034,1.034,0,0,1,85.8.7a.371.371,0,0,1,.126.18A4.255,4.255,0,0,1,86,1.667l.069,1.326q0,.038-.009.252c0,.088-.007.159-.008.211a2.359,2.359,0,0,1,.007.42c0,.1,0,.151,0,.161a3.078,3.078,0,0,1-.182,1.213,1.333,1.333,0,0,1-.6.625,2.567,2.567,0,0,1-1.2.227,2.19,2.19,0,0,1-.722-.129,1.359,1.359,0,0,1-.557-.329,1.133,1.133,0,0,1-.262-.5,8.989,8.989,0,0,1-.084-1.564l-.013-2.286.046-.526a.208.208,0,0,1,.1-.135.581.581,0,0,1,.29-.08.148.148,0,0,1,.064-.017.144.144,0,0,1,.027-.022V.424a.221.221,0,0,1,.015-.078L82.965.329l-.838.009H81.4l-.309,0h-.027a.183.183,0,0,1-.035.025,1.156,1.156,0,0,1,0,.132.236.236,0,0,1,0,.059l.02.017c.051.005.108.007.174.007l.272,0a.167.167,0,0,1,.147.074.677.677,0,0,1,.074.373v.7L81.7,2.772l.013,1.293v.319a2.4,2.4,0,0,0,.162,1,1.515,1.515,0,0,0,.434.518,2.421,2.421,0,0,0,.844.421,3.455,3.455,0,0,0,.951.092,2.82,2.82,0,0,0,.852-.138,2.049,2.049,0,0,0,.689-.354,1.519,1.519,0,0,0,.395-.483,2.525,2.525,0,0,0,.21-.725A9.624,9.624,0,0,0,86.3,3.478L86.285,3l.005-.379-.033-.956c-.012-.32-.019-.528-.019-.623a.484.484,0,0,1,.111-.368,1.514,1.514,0,0,1,.617-.165l.015-.023V.355A.127.127,0,0,1,86.96.33Z"/><path d="M66.344.711a.158.158,0,0,1,.088-.08,2.453,2.453,0,0,1,.541-.1,3.1,3.1,0,0,0,.312-.05,1.012,1.012,0,0,0,.009-.127.09.09,0,0,1-.032-.013c-.513.018-.927.027-1.237.027L64.787.342h-.378L64.4.35c0,.073.017.119.041.137a1.475,1.475,0,0,0,.436.068,1.57,1.57,0,0,1,.557.118A.616.616,0,0,1,65.481.8q.029.327.028.62c0,.076,0,.141,0,.2l-.009.242.009.192v.429l0,.364-.009.33.018.566v.513l.006.49a3.331,3.331,0,0,1-.1,1.2q-.1.125-.815.17a.7.7,0,0,0-.21.052L64.4,6.3h.089l1.1.006.644-.01c.2.01.338.014.416.014.134,0,.343,0,.625-.014V6.257a.488.488,0,0,0-.013-.1.573.573,0,0,0-.331-.075,1.842,1.842,0,0,1-.336-.055.474.474,0,0,1-.208-.1.392.392,0,0,1-.088-.208,5.167,5.167,0,0,1-.025-.667c0-.093,0-.268.009-.526V3.7l-.018-2.076.023-.6A.753.753,0,0,1,66.344.711Z"/><path d="M12.838,6.009A.117.117,0,0,1,12.805,6a.555.555,0,0,1-.095-.015.468.468,0,0,1-.09-.014L12.6,5.96a1.053,1.053,0,0,1-.156-.051.5.5,0,0,1-.058-.022.168.168,0,0,1-.056-.025.166.166,0,0,1-.046-.029.764.764,0,0,1-.171-.266q-.093-.2-.388-1.077l-.373-1.029-.7-1.9q-.189-.475-.272-.715A6.406,6.406,0,0,0,10.024,0L9.862,0,9.727.009C9.634.3,9.556.529,9.491.7Q9.1,1.725,9,2.012L8.568,3.226q-.106.3-.221.581c-.026.058-.086.225-.181.5a10.893,10.893,0,0,1-.54,1.333.706.706,0,0,1-.277.3,1.863,1.863,0,0,1-.419.065l-.093,0a.3.3,0,0,1-.043.009l-.019.011-.009.015v.114l.013.01.027.006.059,0c.029,0,.071,0,.124.007H7.1c.16-.007.272-.01.337-.01s.172,0,.323.01c.311.014.61.024.847.025a.214.214,0,0,1,.045,0l-.01,0h.028A.069.069,0,0,1,8.7,6.2v0a.231.231,0,0,1,.024-.02V6.167l.008-.013,0-.015a.259.259,0,0,1,0-.056v0l-.005-.026,0-.009L8.7,6.032a.182.182,0,0,1-.035-.006l-.4-.035a2.208,2.208,0,0,1-.258-.051.407.407,0,0,1-.041-.14A6.648,6.648,0,0,1,8.221,5l.408-1.268a2.058,2.058,0,0,1,.078-.2,2.759,2.759,0,0,1,.346-.023l.291,0,.988-.01a2.084,2.084,0,0,1,.332.033q.429,1.161.49,1.368c.042.139.091.285.146.439a3.013,3.013,0,0,1,.12.43.39.39,0,0,1-.01.149,1.153,1.153,0,0,1-.3.028l-.28.018a.111.111,0,0,1-.031.009L10.773,6l-.007.028c0,.026,0,.052,0,.078a.229.229,0,0,1,.007.028l.006.018c.008.009.017.018.024.027.035,0,.068,0,.1,0l.559-.006.461.01c.4.009.673.014.831.014l.114,0A.226.226,0,0,0,12.838,6.009Zm-2.912-2.7q-.633,0-1.126-.028l-.028-.019a.821.821,0,0,0,.048-.145q.016-.07.081-.249c.043-.118.085-.237.125-.357q.129-.4.425-1.121.175-.42.2-.475L9.7,1l.419,1.065q.032.084.332.886a3.108,3.108,0,0,1,.106.337C10.376,3.3,10.166,3.309,9.926,3.309Z"/><path d="M6.579,3.621v0a.366.366,0,0,1-.021-.051l-.011-.011,0,0-.018-.009-.015,0h0c-.068,0-.13,0-.183,0l-.426,0-.471-.019c-.268-.006-.462-.009-.581-.009-.443,0-.755.008-.939.026a.211.211,0,0,1-.023.019.225.225,0,0,1,0,.045.22.22,0,0,1,.012.062.653.653,0,0,1,.054.064h0l.022.008.072,0,.183.013q.558.042.664.173A2.2,2.2,0,0,1,5,4.85a2.2,2.2,0,0,1-.062.647.682.682,0,0,1-.231.3A1.312,1.312,0,0,1,4.2,6a2.715,2.715,0,0,1-.609.079,3.055,3.055,0,0,1-.641-.051A2.026,2.026,0,0,1,2.3,5.746a3.227,3.227,0,0,1-.73-.677,3.066,3.066,0,0,1-.479-.841A2.894,2.894,0,0,1,.92,3.208a2.969,2.969,0,0,1,.462-1.68A2.577,2.577,0,0,1,2.5.549a3.185,3.185,0,0,1,1.254-.2A1.771,1.771,0,0,1,4.863.7a2.626,2.626,0,0,1,.762,1.053l.128-.023c0-.077-.009-.222-.028-.434L5.675.6A3.206,3.206,0,0,0,4.881.282,4.969,4.969,0,0,0,3.593.143a3.969,3.969,0,0,0-1.8.342A3.1,3.1,0,0,0,.424,1.742,3.246,3.246,0,0,0,0,3.323,3.168,3.168,0,0,0,.27,4.592a2.658,2.658,0,0,0,.6.84,2.978,2.978,0,0,0,1,.648,4.008,4.008,0,0,0,1.485.233,6.61,6.61,0,0,0,1.167-.106,3.554,3.554,0,0,0,.723-.216A1.317,1.317,0,0,0,5.606,5.8a.384.384,0,0,0,.115-.183,3.669,3.669,0,0,0,.05-.794l0-.6a.7.7,0,0,1,.047-.347.3.3,0,0,1,.242-.106l.3,0a1.046,1.046,0,0,0,.164-.017l.03-.014.013-.015.008-.014a.244.244,0,0,1,.011-.055A.193.193,0,0,1,6.579,3.621Z"/><path d="M18.658,4.958h-.2a.3.3,0,0,1-.018.068,1.24,1.24,0,0,1-1.149.921.961.961,0,0,1-.109.009l-.123.007-.8.028h-.313c-.376,0-.653-.007-.73-.01-.03-.022-.046-.078-.046-.171l-.005-.286.015-1.3L15.176,2.7V2.4l-.005-.853V1.273c.007-.15.009-.25.009-.3A.42.42,0,0,1,15.338.6a1.817,1.817,0,0,1,.494-.052c.286-.011.446-.02.48-.026a.856.856,0,0,0,.032-.18c-.1-.009-.277-.015-.527-.015l-.37.029c-.027,0-.132.005-.314.005-.074-.007-.118-.01-.134-.01l-.12.005L14.472.351l-.7-.027c-.132-.007-.228-.01-.286-.01a.526.526,0,0,0,0,.073.578.578,0,0,0,0,.074c.43.078.671.122.725.135a1.037,1.037,0,0,1,.2.073A.528.528,0,0,1,14.447.8c.01.16.013.566.01,1.215V2.3l-.005,1.081.005.826-.033,1.22a1.167,1.167,0,0,1-.055.443.414.414,0,0,1-.291.1c-.11.01-.221.026-.334.046-.014.069-.024.138-.034.207h.11c.095,0,.186,0,.272-.009q.415-.042,2.64-.041l1.725.05c.007-.052.013-.109.019-.17q.051-.433.185-1.085l0-.013Z"/><path d="M24.29,4.958h-.2a.251.251,0,0,1-.017.068,1.24,1.24,0,0,1-1.149.921.963.963,0,0,1-.108.009l-.124.007-.8.028h-.314c-.376,0-.653-.007-.73-.01-.03-.022-.046-.078-.046-.171l0-.286.014-1.3L20.807,2.7V2.4l0-.853V1.273c.006-.15.009-.25.009-.3A.419.419,0,0,1,20.969.6a1.824,1.824,0,0,1,.494-.052c.286-.011.446-.02.479-.026a.8.8,0,0,0,.033-.18c-.1-.009-.277-.015-.527-.015l-.37.029c-.028,0-.132.005-.314.005-.074-.007-.118-.01-.134-.01L20.51.36,20.1.351,19.4.324c-.132-.007-.228-.01-.286-.01,0,.03,0,.055,0,.073s0,.041,0,.074c.429.078.671.122.726.135a1.055,1.055,0,0,1,.2.073A.528.528,0,0,1,20.078.8c.01.16.013.566.01,1.215V2.3l-.005,1.081.005.826-.033,1.22A1.146,1.146,0,0,1,20,5.87a.412.412,0,0,1-.291.1c-.11.01-.221.026-.334.046-.014.069-.025.138-.034.207h.11c.095,0,.186,0,.272-.009q.416-.042,2.64-.041l1.726.05c.006-.052.012-.109.018-.17q.051-.433.185-1.085l0-.013Z"/><path d="M42.107.254l-.7.013L40.542.244l-.053,0-.015.013a.236.236,0,0,1,.011.14L40.5.424a1.379,1.379,0,0,1,.536.134.184.184,0,0,1,.088.157.335.335,0,0,1-.009.079.936.936,0,0,1-.121.23l-.767,1.15-.667.957c-.08.114-.142.2-.189.259l-.7-1.062c-.07-.1-.138-.209-.2-.32-.163-.276-.317-.517-.462-.72A4.2,4.2,0,0,1,37.76.923C37.726.874,37.7.837,37.686.812A.29.29,0,0,1,37.621.66c0-.038.025-.072.074-.106A.384.384,0,0,1,37.86.492a.174.174,0,0,1,.067-.017.235.235,0,0,1,.094-.019h.011a.2.2,0,0,1,.044-.005l.019,0L38.1.45a.314.314,0,0,1,.07-.071l.012-.008L38.2.357a.214.214,0,0,1,0-.044L38.2.3l-.01-.02-.467.008q-.414,0-1.043-.025c-.22-.007-.376-.01-.469-.012a.155.155,0,0,1-.033.024.267.267,0,0,1,0,.048l0,.021a.211.211,0,0,1-.008.094l.008.033a.893.893,0,0,1,.326.079,2.044,2.044,0,0,1,.466.522l1.029,1.5.6.919a1.634,1.634,0,0,1,.2.348,2.73,2.73,0,0,1,.031.547q0,1.2-.005,1.282a.285.285,0,0,1-.07.171,1.454,1.454,0,0,1-.347.139l-.47.072a.078.078,0,0,1-.016.02v.162l.019.013h.659l.795,0,.988.006a.154.154,0,0,1,.023-.029c0-.05-.005-.1-.006-.152a.157.157,0,0,1-.026-.019,3.471,3.471,0,0,1-.723-.119c-.031-.019-.055-.071-.074-.157a14.7,14.7,0,0,1-.051-1.7,2.169,2.169,0,0,1,.051-.546.942.942,0,0,1,.143-.23c.043-.055.1-.141.171-.254q.329-.522.8-1.158A14.945,14.945,0,0,1,41.835.536a.606.606,0,0,1,.152-.079c.04,0,.069-.007.087-.009l.111-.014a.464.464,0,0,0,.1-.015L42.3.258Z"/><path d="M80.551.336A.135.135,0,0,1,80.519.31l-.148,0-.7.014L78.806.3h-.027a.133.133,0,0,1-.033.041.227.227,0,0,1,0,.113l.009.013.02.014A1.342,1.342,0,0,1,79.3.611a.184.184,0,0,1,.088.157.283.283,0,0,1-.01.078.911.911,0,0,1-.119.231l-.769,1.15-.665.956c-.081.114-.143.2-.19.259l-.7-1.062c-.071-.1-.138-.208-.2-.32-.163-.276-.318-.517-.462-.72a4.362,4.362,0,0,1-.244-.364c-.035-.05-.059-.087-.075-.111a.293.293,0,0,1-.064-.152.137.137,0,0,1,.074-.106A.24.24,0,0,1,76.006.58a.155.155,0,0,1,.071-.036.211.211,0,0,1,.046-.019.182.182,0,0,1,.064-.014A.193.193,0,0,1,76.252.5h.1L76.372.5a.319.319,0,0,1,.064-.063c.025-.018.029-.02.012-.008l.018-.018a.194.194,0,0,1,0-.042L76.458.355l-.009-.02-.467.008q-.416,0-1.043-.024c-.239-.008-.4-.012-.492-.013l-.01.015a.284.284,0,0,1,0,.058L74.423.43V.439a.066.066,0,0,1,0,.014V.474l0,.019h0a.164.164,0,0,1,.03.035.82.82,0,0,1,.305.078,2,2,0,0,1,.466.521l1.029,1.5.605.918a1.658,1.658,0,0,1,.2.348,2.764,2.764,0,0,1,.03.547q0,1.2,0,1.283a.288.288,0,0,1-.07.171,1.476,1.476,0,0,1-.347.139l-.472.073-.015.013v.163l.014.018h.665l.8.008.971-.007a.142.142,0,0,1,.035-.029c0-.048-.006-.1-.007-.144a.133.133,0,0,1-.026-.027,3.645,3.645,0,0,1-.724-.119.249.249,0,0,1-.073-.158,14.656,14.656,0,0,1-.051-1.7,2.158,2.158,0,0,1,.051-.546.894.894,0,0,1,.143-.231c.043-.055.1-.14.171-.253q.327-.522.8-1.159A14.92,14.92,0,0,1,80.1.588.608.608,0,0,1,80.251.51.731.731,0,0,0,80.338.5l.111-.014c.027,0,.049,0,.068-.006a.13.13,0,0,1,.035-.031l.006-.073A.257.257,0,0,1,80.551.336Z"/><path d="M36.749,6.073a.132.132,0,0,1-.019-.029,2.669,2.669,0,0,1-.627-.172,1.118,1.118,0,0,1-.325-.234,5.65,5.65,0,0,1-.485-.7l-.585-1c-.188-.31-.333-.576-.438-.8A2.045,2.045,0,0,1,34.51,3,1.412,1.412,0,0,0,35.155.9,1.327,1.327,0,0,0,34.5.38,4.705,4.705,0,0,0,33.055.228L31.842.242H31.6a1.321,1.321,0,0,1-.314-.005h-.035l-.028,0c-.051.006-.084.009-.1.009H31.1c-.005.071,0,.158-.007.228,0,.009.008.017.012.026.061.011.141.023.241.036a.967.967,0,0,1,.51.164,1.383,1.383,0,0,1,.08.641l0,.83,0,1.157-.009.623.014.549c0,.129,0,.261-.009.4q-.037.72-.037.835v.05a.242.242,0,0,1-.11.139c-.053.019-.336.052-.709.1a.88.88,0,0,0-.063.166l.014.008.387-.013.613,0,.627-.009c.036,0,.084,0,.142,0,.114.006.309.01.586.01a.769.769,0,0,0,.1-.011l.011-.006a.608.608,0,0,0-.023-.143L33.327,6a2.792,2.792,0,0,1-.519-.16.285.285,0,0,1-.127-.141.91.91,0,0,1-.037-.244V3.873c0-.3.005-.505.015-.6l.129,0,.392,0a.508.508,0,0,1,.238.048.837.837,0,0,1,.228.242l.683,1.248q.443.755.77,1.383c.072.006.127.009.167.009q.843,0,1.472-.009l.01-.01c0-.023,0-.044,0-.06S36.751,6.092,36.749,6.073ZM34.233,2.746a1.245,1.245,0,0,1-.493.2,4.4,4.4,0,0,1-.766.078c-.041,0-.222,0-.306,0-.012-.372-.018-.677-.018-.917l.005-.354L32.632.883c0-.086-.01-.226,0-.386.132-.009.377,0,.459,0a1.948,1.948,0,0,1,.87.179,1.17,1.17,0,0,1,.515.448,1.343,1.343,0,0,1,.2.664,1.281,1.281,0,0,1-.127.552A1.022,1.022,0,0,1,34.233,2.746Z"/><path d="M54.639,5.353a.139.139,0,0,1-.039-.028.159.159,0,0,1-.042-.014c-.056-.015-.1-.03-.138-.01a.211.211,0,0,1-.047.019,2.177,2.177,0,0,1-.317.507,1,1,0,0,1-.477.271,5.484,5.484,0,0,1-1.162.077q-.361,0-.607-.007l-.283-.007-.276.005a.413.413,0,0,1-.334-.1,1.422,1.422,0,0,1-.059-.546l0-.522,0-.536,0-.852,0-.152a7.559,7.559,0,0,1,.823-.028h.293c.22,0,.386,0,.5-.006s.188-.007.23-.007a.61.61,0,0,1,.418.118.834.834,0,0,1,.174.334.2.2,0,0,1,.039.06.216.216,0,0,1,.053.06.164.164,0,0,1,.029.02h0a.148.148,0,0,1,.064.022l.016,0,.027,0a.144.144,0,0,1,.037,0,.175.175,0,0,1,.024,0c-.015-.183-.022-.349-.022-.5q0-.612.011-.886l-.009-.01a.261.261,0,0,1-.028,0l-.021,0a.233.233,0,0,1-.038,0h-.009a.365.365,0,0,0-.113.08.211.211,0,0,1-.024.044.163.163,0,0,1-.027.065.643.643,0,0,1-.081.27c-.027.037-.121.069-.281.1q-.768,0-1.256.018a.866.866,0,0,1-.095,0c-.054,0-.159,0-.317-.01l-.225,0h-.077a.417.417,0,0,1-.109-.014V2.548Q50.84,1.5,50.839,1.44a1.524,1.524,0,0,1,.078-.651c.033-.042.132-.064.3-.064h.114L52.618.7c.063,0,.128,0,.194,0l.411.01q.084,0,.144.006h.024a.2.2,0,0,1,.063.011.167.167,0,0,1,.064.015.236.236,0,0,1,.154.1l.009.014v0a.2.2,0,0,1,.037.045.184.184,0,0,1,.026.04.728.728,0,0,1,.056.088.3.3,0,0,1,.024.047c.007.014.013.029.019.043a.025.025,0,0,1,.006.013.2.2,0,0,1,.023.076.225.225,0,0,1,.019.055c0,.013.007.026.011.04a1.054,1.054,0,0,1,.064.266A.228.228,0,0,1,54,1.6a.168.168,0,0,1,.086-.026.222.222,0,0,1,.045-.02.272.272,0,0,1,.013-.037c-.009-.165-.014-.35-.014-.555A1.551,1.551,0,0,1,54.151.8a1.524,1.524,0,0,0,.02-.2A.265.265,0,0,0,54.14.521L54.094.5,53.737.485,53.642.5,53,.5,52.809.5h-.474a.225.225,0,0,1-.048-.006c-.071,0-.155.005-.254.01C51.81.507,51.5.512,51.1.512L50.614.5a1.875,1.875,0,0,1-.443,0l-.2,0C49.8.5,49.631.5,49.469.48l-.032.014c0,.059-.012.117-.021.176a.181.181,0,0,1,.027.018c.029,0,.059,0,.091,0a1.121,1.121,0,0,1,.551.1,1.31,1.31,0,0,1,.059.531l.022,1.318,0,1.16.009.555-.005,1.174.005.324a.481.481,0,0,1-.131.259,1.415,1.415,0,0,1-.431.074.13.13,0,0,1-.039.025l-.024.093a.267.267,0,0,1,0,.04v.006l.029.06H49.6q.347-.008.874-.031c.06,0,.125,0,.194,0h.552l1.356-.019.57,0,1.27-.014h.076a.148.148,0,0,1,.039-.026c0-.008.009-.014.013-.023.019-.108.028-.216.049-.324a5.056,5.056,0,0,1,.053-.541l.006-.037A.246.246,0,0,1,54.639,5.353Z"/><path d="M30.148,5.2a.151.151,0,0,1-.039-.027.187.187,0,0,1-.042-.013c-.056-.017-.1-.031-.137-.012a.237.237,0,0,1-.047.02,2.224,2.224,0,0,1-.317.508,1.024,1.024,0,0,1-.478.271,5.639,5.639,0,0,1-1.161.076q-.361,0-.608-.008l-.283-.006-.275,0c-.173,0-.284-.033-.335-.1a1.461,1.461,0,0,1-.059-.545l0-.522,0-.536,0-.851,0-.153a7.668,7.668,0,0,1,.823-.027h.294c.22,0,.385,0,.5-.007s.188-.008.231-.008a.609.609,0,0,1,.418.119.848.848,0,0,1,.173.334.183.183,0,0,1,.039.06.216.216,0,0,1,.054.059.16.16,0,0,1,.028.022h0a.163.163,0,0,1,.063.022l.017,0,.026,0a.222.222,0,0,1,.037,0l.024,0c-.014-.182-.022-.35-.022-.5,0-.407,0-.7.011-.885l-.008-.01h-.028l-.021,0a.211.211,0,0,1-.038,0h-.009a.353.353,0,0,0-.113.08.17.17,0,0,1-.024.044.2.2,0,0,1-.028.066.623.623,0,0,1-.081.269.522.522,0,0,1-.28.1q-.768,0-1.257.019a.672.672,0,0,1-.095,0c-.054,0-.159,0-.316-.009-.1,0-.175,0-.226,0H26.48a.371.371,0,0,1-.108-.015V2.4c-.016-.7-.023-1.07-.023-1.107a1.548,1.548,0,0,1,.077-.651c.033-.043.132-.064.3-.064h.114L28.127.545c.063,0,.128,0,.2,0l.411.01c.056,0,.1,0,.143.006H28.9a.2.2,0,0,1,.063.011.207.207,0,0,1,.064.014.239.239,0,0,1,.154.1l.009.014,0,0a.193.193,0,0,1,.036.045.248.248,0,0,1,.027.039c.02.029.038.059.055.088a.2.2,0,0,1,.024.048.4.4,0,0,1,.019.043.024.024,0,0,1,.006.014.2.2,0,0,1,.023.075.212.212,0,0,1,.019.055c0,.013.008.027.011.039a1.116,1.116,0,0,1,.065.268.139.139,0,0,1,.032.027.182.182,0,0,1,.087-.026.214.214,0,0,1,.044-.018.337.337,0,0,1,.013-.038c-.009-.166-.014-.35-.014-.556,0-.021.008-.077.021-.166a1.376,1.376,0,0,0,.02-.2A.25.25,0,0,0,29.649.37L29.6.346,29.246.334l-.095.012L28.51.351,28.318.342h-.474A.244.244,0,0,1,27.8.337l-.253.009q-.334.014-.932.014L26.123.349a1.815,1.815,0,0,1-.442,0l-.2.006c-.173,0-.34-.009-.5-.024a.134.134,0,0,1-.032.014c0,.06-.011.119-.02.177a.151.151,0,0,1,.026.018l.091,0a1.121,1.121,0,0,1,.551.1,1.32,1.32,0,0,1,.059.532l.023,1.317,0,1.161.009.554,0,1.173,0,.325a.484.484,0,0,1-.131.259,1.439,1.439,0,0,1-.43.074.15.15,0,0,1-.04.025c-.007.031-.016.062-.024.093a.186.186,0,0,1,0,.041v0c.009.021.019.04.029.06l.018,0c.231-.007.522-.017.875-.032.06,0,.125-.006.194-.006h.551l1.357-.018.569,0L29.92,6.2H30a.177.177,0,0,1,.039-.026l.014-.023c.018-.108.027-.216.048-.323a5.319,5.319,0,0,1,.053-.542l.006-.037A.257.257,0,0,1,30.148,5.2Z"/><path d="M75.359,6.192a.118.118,0,0,1-.02-.028,2.74,2.74,0,0,1-.627-.173,1.11,1.11,0,0,1-.325-.233,5.892,5.892,0,0,1-.485-.7l-.584-1a9.024,9.024,0,0,1-.438-.8,2.094,2.094,0,0,1,.239-.138,1.412,1.412,0,0,0,.645-2.107A1.325,1.325,0,0,0,73.107.5,4.681,4.681,0,0,0,71.664.348L70.451.361h-.243a1.278,1.278,0,0,1-.315,0h-.034a.135.135,0,0,1-.028,0l-.1.008h-.027C69.7.44,69.708.527,69.7.6l.012.026c.062.011.141.022.242.037a.969.969,0,0,1,.509.162,1.369,1.369,0,0,1,.081.642l-.005.829.005,1.159-.009.622.013.548c0,.13,0,.261-.009.4-.024.48-.037.758-.037.835v.051a.236.236,0,0,1-.11.137c-.052.02-.335.053-.709.1a1.068,1.068,0,0,0-.063.165l.014.009c.232-.009.361-.013.388-.013l.612,0L71.26,6.3c.037,0,.085,0,.143,0,.113.006.309.01.585.01a.96.96,0,0,0,.1-.011l.012,0a.571.571,0,0,0-.024-.144l-.142-.034a2.685,2.685,0,0,1-.519-.16.29.29,0,0,1-.127-.14.85.85,0,0,1-.037-.245V3.994q0-.457.014-.605l.129.005.393-.005a.5.5,0,0,1,.237.049.837.837,0,0,1,.229.242l.682,1.248q.444.753.771,1.383c.071,0,.126.009.166.009q.843,0,1.473-.009l.009-.01a.473.473,0,0,0,0-.06C75.361,6.229,75.36,6.212,75.359,6.192ZM72.843,2.866a1.28,1.28,0,0,1-.494.2,4.384,4.384,0,0,1-.766.078c-.04,0-.222,0-.3-.005-.012-.372-.019-.677-.019-.916l0-.356L71.241,1c0-.087-.01-.226,0-.385.133-.009.377,0,.459,0a1.942,1.942,0,0,1,.871.18,1.158,1.158,0,0,1,.514.446,1.349,1.349,0,0,1,.2.664,1.271,1.271,0,0,1-.127.553A1.02,1.02,0,0,1,72.843,2.866Z"/></g></g></svg>