<svg xmlns="http://www.w3.org/2000/svg" viewBox="0 0 87.862 39.565"><title>logo</title><g id="レイヤー_2" data-name="レイヤー 2"><g id="レイヤー_1-2" data-name="レイヤー 1"><path d="M5.269,36.28c-.171.035-.344.077-.518.1a.418.418,0,0,1-.2.049H4.5a4.383,4.383,0,0,1-.829.247c-.118,0-.143-.059-.2-.279a4.422,4.422,0,0,1-.115-.582c0-.073.006-.123.123-.163.071-.019.129-.039.654-.143.473-.09.6-.115.6-.244,0-.1-.169-.235-.371-.241h0a.371.371,0,0,1-.1.025,1.43,1.43,0,0,1-.225.071c-.029.012-.058.026-.092.039a3.809,3.809,0,0,1-.564.175c-.091,0-.162,0-.22-.419-.006-.036-.011-.124-.017-.221-.01-.065-.02-.131-.033-.193,0-.02-.007-.039-.011-.059s-.017-.033-.025-.049c-.019-.044-.035-.083-.05-.123a1.28,1.28,0,0,0-.5-.172.411.411,0,0,0-.078.007.66.66,0,0,1-.07.043.483.483,0,0,1,.032.123.362.362,0,0,1,.071.122.36.36,0,0,1,.068.114,1.812,1.812,0,0,1,.3.822c0,.123-.1.162-.324.213a6.284,6.284,0,0,1-.719.1,1.262,1.262,0,0,1-.318.036.736.736,0,0,1-.093.034c.027.12.442.336.586.336a8.413,8.413,0,0,1,.9-.245c.1,0,.123.065.168.227a3.49,3.49,0,0,1,.136.648c0,.11-.038.136-.207.167a8.024,8.024,0,0,1-1.438.218.566.566,0,0,1-.2,0c.058.008-.11,0-.092,0H1.228a.553.553,0,0,1-.14.035A.831.831,0,0,1,1,37.107a.626.626,0,0,1-.062.043,1.243,1.243,0,0,0,.548.374c.17-.036.343-.062.517-.083l.063-.026c.317-.1,1.088-.285,1.113-.285.118,0,.149.085.17.2.031.149.174.855.206,1.017.052.272.156.835.442.835.1,0,.141-.123.141-.247,0-.284-.465-1.6-.465-1.773,0-.123.012-.162.284-.22a6.726,6.726,0,0,1,1.165-.188c.235,0,.5-.006.5-.2C5.623,36.458,5.516,36.318,5.269,36.28Z"/><path d="M5.494,33.971c-.039,0-.246,0-.246.064,0,.02.019.045.085.077a1.658,1.658,0,0,1,.543.389c.11.148.194.259.33.259.117,0,.169-.123.169-.2C6.375,34.2,5.845,33.971,5.494,33.971Z"/><path d="M4.866,34.534c-.059,0-.116.012-.116.044s.064.085.083.1a1.772,1.772,0,0,1,.427.423c.176.251.234.308.325.308.124,0,.2-.167.2-.244C5.786,34.877,5.333,34.534,4.866,34.534Z"/><path d="M18.115,36.039H17.9a1.439,1.439,0,0,1-.321.032c-.009,0-.019.008-.028.01a.124.124,0,0,1-.018,0,.169.169,0,0,1-.055.023,6.26,6.26,0,0,1-.958.2c-.1,0-.129-.147-.142-.337,0-.017-.01-.035-.012-.051a.468.468,0,0,1-.035-.21.245.245,0,0,1-.015-.062.782.782,0,0,1-.041-.188.713.713,0,0,0-.382-.078,1.144,1.144,0,0,0-.174.014c.01.021.022.043.031.064s.016.045.025.069a.424.424,0,0,1,.064.167.59.59,0,0,1,.033.106,1.457,1.457,0,0,1,.176.539.12.12,0,0,1-.091.1,4.878,4.878,0,0,1-.906.116.43.43,0,0,1-.059,0,.376.376,0,0,1-.1.011c-.019,0-.036,0-.053,0a2.261,2.261,0,0,1-.33.029c0,.011,0,.024,0,.031a.264.264,0,0,0,.129.234c.159.106.24.162.291.188a.407.407,0,0,1,.067-.016c.136-.039.272-.072.41-.1a3.941,3.941,0,0,1,.676-.187c.091,0,.105.033.183.291.089.3.44,1.807.472,1.912a.67.67,0,0,0,.29.321l.061.005.023,0,.022,0a.362.362,0,0,1,.083-.043.428.428,0,0,0,.046-.192,1.736,1.736,0,0,0-.182-.6,15.03,15.03,0,0,1-.557-1.731c0-.1.026-.108.259-.166.091-.02.868-.208.9-.208s.071.006.071.05c0,.162-.563.766-.563.837a.033.033,0,0,0,.032.032,2.861,2.861,0,0,0,.589-.35,2.022,2.022,0,0,1,.395-.259.53.53,0,0,1,.108-.057c-.047.017,0-.007.031-.021.036-.034.073-.064.109-.1a.5.5,0,0,1,.01-.079A.948.948,0,0,0,18.115,36.039Z"/><path d="M30.611,34.461c-.089,0-.536.111-.634.129a6.127,6.127,0,0,1-1.036.073c-.055,0-.132,0-.2-.007a.449.449,0,0,1-.2-.012.056.056,0,0,0-.021-.006.041.041,0,0,0-.016,0,.468.468,0,0,1-.066,0h-.017a.433.433,0,0,1-.081,0h-.005c.033.1.22.46.53.46.046,0,1.438-.123,1.542-.136.375-.032.6-.051.6-.253S30.722,34.461,30.611,34.461Z"/><path d="M31.215,35.7a.5.5,0,0,1-.088.006h-.012l-.128.056c-.006,0-.433.038-.446.038-.24.026-1.529.194-2.06.194-.071,0-.139-.006-.205-.011a.355.355,0,0,1-.057.005h-.1c-.013,0-.025,0-.036,0s-.023,0-.035,0h-.025a.3.3,0,0,1-.042-.005.31.31,0,0,1-.054.005.324.324,0,0,1-.056-.005.223.223,0,0,1-.036.005.372.372,0,0,1-.082.056,1.588,1.588,0,0,0,.411.448h.1a.625.625,0,0,1,.087.009.5.5,0,0,1,.081-.009c.01,0,.019,0,.029,0s.011,0,.018,0h.1a.443.443,0,0,1,.06.007.158.158,0,0,1,.032,0,.411.411,0,0,1,.141-.027c.44-.1,1.835-.344,2.039-.344.089,0,.134.042.134.123a4.862,4.862,0,0,1-2.551,2.621c-.04.022-.221.1-.234.116a.086.086,0,0,0-.013.041.052.052,0,0,0,.059.051,4.558,4.558,0,0,0,1.146-.42,4.3,4.3,0,0,0,1.827-1.73c.1-.156.164-.253.219-.326.074-.14.151-.278.23-.417a.737.737,0,0,1,0-.1A1.519,1.519,0,0,0,31.215,35.7Z"/><path d="M42.553,36.534c-.007-.154-.019-.737-.019-1.488,0-.026.008-.127.011-.184a.423.423,0,0,1-.018-.08.844.844,0,0,0-.493-.288.609.609,0,0,0-.088.006.459.459,0,0,1-.036.041h0c0,.057,0,.115,0,.173a.438.438,0,0,1,.086.2,2.145,2.145,0,0,1,.1.916c0,.117,0,.37-.014.66,0,.051-.031.273-.031.324,0,.17.149.512.292.512.1,0,.247-.162.247-.33C42.593,36.936,42.559,36.612,42.553,36.534Z"/><path d="M44.575,34.57a.473.473,0,0,1,0-.176.3.3,0,0,1-.054-.087,1.047,1.047,0,0,0-.6-.162h-.036c.037.171.08.343.112.516a1.911,1.911,0,0,1,.074.521,4.475,4.475,0,0,1-1.36,3.692c-.078.085-.5.5-.5.523s.014.033.04.033a2.589,2.589,0,0,0,.583-.382,4.161,4.161,0,0,0,1.682-2.942c.02-.224.026-1.2.052-1.372v0A.46.46,0,0,1,44.575,34.57Z"/><path d="M58.857,36.328c-.033,0-.1,0-.143,0-.945.051-3.2.136-3.419.136a3.688,3.688,0,0,1-.791-.056c-.032-.008-.188-.08-.22-.08s-.052.039-.052.08a.8.8,0,0,0,.34.532c.091,0,.18-.007.271-.009.145-.009.29-.011.433-.011a.323.323,0,0,1,.038-.007c.156-.032,1.639-.117,2.532-.117.129,0,.777.013.927.013.272,0,.537-.02.537-.2C59.31,36.567,59.251,36.328,58.857,36.328Z"/><path d="M73.179,34.229c0-.008-.2-.181-.38-.321a4.641,4.641,0,0,0-.508.2.505.505,0,0,1-.051.028.41.41,0,0,1-.208.055h-.013c-.035,0-.076,0-.123,0H68.7c-.3,0-.569-.012-.886-.026-.046,0-.241-.019-.286-.019-.012,0-.025,0-.025.012s.006.013.032.046l.122.149c.021.026.033.038.059.038s.111-.012.136-.012c.065-.006.246-.021.817-.021h.718c.1,0,.168,0,.168.093a3.684,3.684,0,0,1-.35.956A9.594,9.594,0,0,1,67.6,37.68a1.283,1.283,0,0,0-.181.235.035.035,0,0,0,.032.031,3.6,3.6,0,0,0,1.231-1.068c.15-.188.162-.207.2-.207s.065.052.083.182a4.166,4.166,0,0,1,.028.667c0,.484-.021,1.21-.033,1.481-.006.047-.026.28-.026.332,0,.109.045.174.168.174a.367.367,0,0,0,.382-.375c.019-.148.169-.148.221-.148h1.981c.254,0,.254.1.254.258,0,.039,0,.2.122.2a.409.409,0,0,0,.427-.4c0-.24-.052-1.418-.052-1.685,0-.061,0-.106,0-.151a.2.2,0,0,1-.006-.082.248.248,0,0,0,.01-.039.441.441,0,0,1,.041-.174c.03-.108.061-.212.1-.317a.081.081,0,0,1,.01-.018.992.992,0,0,0-.444-.275c-.059,0-.092.034-.214.15a.285.285,0,0,1-.234.1H69.837a.733.733,0,0,1-.421-.082c-.215-.144-.234-.162-.234-.221s.014-.077.15-.26a9.068,9.068,0,0,0,.764-1.339c.116-.254.124-.28.285-.28h2.447c.324,0,.357,0,.357-.09A.117.117,0,0,0,73.179,34.229ZM69.48,36.8c.033-.085.13-.085.195-.085h2.053c.22,0,.22,0,.22,1.009a9.591,9.591,0,0,1-.026,1c-.032.084-.13.084-.194.084H69.675c-.059,0-.156,0-.188-.084a8.214,8.214,0,0,1-.033-.939C69.454,37.655,69.454,36.866,69.48,36.8Z"/><path d="M82.531,35.279h.376c.141,0,.265,0,.265-.1,0-.065-.115-.177-.227-.268a.607.607,0,0,1-.122.048,1.8,1.8,0,0,1-.239.1.131.131,0,0,1-.051.007.239.239,0,0,1-.125.035c-.09,0-.09-.025-.09-.264a4.167,4.167,0,0,1,.038-.656.1.1,0,0,1,.016-.027c0-.03,0-.059,0-.086s0-.081,0-.123c0-.026,0-.053,0-.08v-.045c-.118-.035-.456-.131-.507-.131s-.071.006-.071.039a1.027,1.027,0,0,0,.077.221,1.413,1.413,0,0,1,.025.317c0,.8,0,.835-.213.835-.09,0-.524-.04-.628-.04-.007,0-.019,0-.019.015s.006.017.026.045l.123.149c.026.025.039.045.058.045.066,0,.376-.032.447-.032a.155.155,0,0,1,.175.154A15.092,15.092,0,0,1,81,38.355a3.048,3.048,0,0,0-.187.452c.013,0,.077-.07.1-.089a4.113,4.113,0,0,0,.57-.876c.065-.121.376-.783.383-.783.025,0,.025.1.025.123,0,.162-.007.965-.007,1.146,0,.284,0,.454-.012.7-.006.057-.026.33-.026.368,0,.143.057.168.194.168a.282.282,0,0,0,.324-.285c0-.038-.013-.3-.013-.361-.007-.357-.02-2.469-.02-2.726,0-.015,0-.072.013-.072a2.218,2.218,0,0,1,.324.587c.085.217.118.307.247.307.155,0,.219-.2.219-.311,0-.209-.071-.26-.672-.663-.136-.089-.136-.114-.136-.381C82.318,35.363,82.318,35.279,82.531,35.279Z"/><path d="M84.364,35.846c.045,0,.058.028.071.081.033.133.085.187.181.187.254,0,.254-.213.254-.3a1.167,1.167,0,0,0-.636-.933c-.018,0-.018.026-.018.033s.161.543.161.645c0,.047-.025.085-.117.111-.057.013-.273.066-.317.066a.123.123,0,0,1-.137-.124c-.012-.046-.026-.992-.026-1.081,0-.155.033-.183.137-.209a2.794,2.794,0,0,1,.932-.148c.045,0,.1-.025.1-.077,0-.117-.407-.435-.433-.435s-.156.169-.19.2a3.156,3.156,0,0,1-.575.337.172.172,0,0,1-.123-.012c-.239-.091-.265-.105-.312-.105-.018,0-.063,0-.063.032,0,.014.077.227.084.273a5.884,5.884,0,0,1,.071,1.288c0,.181-.129.181-.24.181-.033,0-.175-.025-.206-.025a.075.075,0,0,0-.047.013c.026.069.2.55.325.55.025,0,.129-.1.161-.116S84.33,35.846,84.364,35.846Z"/><path d="M86.314,38.277c0-.137,0-.862.019-.927a.157.157,0,0,1,.016-.046.277.277,0,0,1,.052-.154c0-.006.008-.008.011-.012.008-.04.016-.079.023-.119a3.626,3.626,0,0,0-.466-.27c-.045,0-.188.143-.219.162a.457.457,0,0,1-.291.071H84.28a1.352,1.352,0,0,1-.363-.039c-.085-.018-.441-.155-.5-.155-.014,0-.033.013-.033.026,0,.064.084.328.09.38s.02,1.794.02,2.016c-.006.032-.02.143-.02.168,0,.059,0,.162.162.162a.312.312,0,0,0,.324-.272c.013-.077.046-.13.182-.13h1.529c.141,0,.174.072.181.149s.025.215.239.215c.259,0,.266-.182.266-.325,0-.071-.007-.1-.033-.414A4.268,4.268,0,0,1,86.314,38.277Zm-1.645.609a.216.216,0,0,1-.2.077h-.312c-.233,0-.233-.027-.233-.62,0-.177.092-.2.227-.2h.318c.186,0,.226.066.226.221C84.694,38.8,84.694,38.847,84.669,38.886Zm-.208-.914H84.15c-.233,0-.233-.045-.233-.413s0-.409.233-.409h.311c.233,0,.233.044.233.413S84.694,37.972,84.461,37.972Zm1.146.991h-.246c-.13,0-.188,0-.233-.077a4.607,4.607,0,0,1-.019-.531c0-.215.1-.215.252-.215h.246c.136,0,.188,0,.233.085a3.369,3.369,0,0,1,.026.532C85.866,38.963,85.762,38.963,85.607,38.963Zm.032-.991h-.31c-.227,0-.227-.052-.227-.409s0-.413.227-.413h.31c.222,0,.227.039.227.409S85.861,37.972,85.639,37.972Z"/><path d="M86.457,34.235a.055.055,0,0,1-.022-.006,2.55,2.55,0,0,1-.254.12.134.134,0,0,1-.052.007.322.322,0,0,1-.145.029h-.1c-.305,0-.589-.006-.887-.021-.039,0-.24-.025-.286-.025-.018,0-.025.008-.025.02a.108.108,0,0,0,.025.038l.131.149c.019.026.033.044.052.044s.181-.018.213-.018a.159.159,0,0,1,.175.183c0,.064-.026.277-.033.35a3.778,3.778,0,0,1-.362,1.308c-.019.044-.194.265-.194.277a.015.015,0,0,0,.013.014,1.254,1.254,0,0,0,.582-.534.1.1,0,0,1,.085-.056.658.658,0,0,1,.394.35c.045.09.073.155.137.155.453,0,.57-.376.628-.628.039-.182.13-1.128.137-1.146.012-.039.187-.214.187-.267C86.851,34.509,86.6,34.329,86.457,34.235Zm-.326,1.471c-.045.259-.084.415-.207.415-.037,0-.31-.048-.427-.065-.071-.015-.084-.048-.084-.085s.111-.324.129-.381a4.075,4.075,0,0,0,.155-.876c.021-.155.131-.155.227-.155h.1c.188,0,.195.1.195.2A5.686,5.686,0,0,1,86.131,35.706Z"/><path d="M30.517,18.909a1.764,1.764,0,0,0,.4-.084.1.1,0,0,1,.025-.026v-.013a.434.434,0,0,1,0-.1.325.325,0,0,1-.008-.069.239.239,0,0,0-.075-.061l-.037,0c-.145.015-.291.021-.435.023-.288.014-.545.014-.823.012-.15.008-.3.013-.454.01l-.237.013q-.357.011-.98.011c-.859,0-1.465.009-1.824.026a.247.247,0,0,1-.05.019.3.3,0,0,1-.013.049.307.307,0,0,1,.007.06.424.424,0,0,1,.019.142l.009.026a.356.356,0,0,0,.08.08c.435.026.789.061,1.064.105a.827.827,0,0,1,.287.125,1.087,1.087,0,0,1,.124.393q.058.505.057,2.02l-.018,1.789.055,2.662-.018.775v1.782l.01.938a.746.746,0,0,1-.191.573,4.662,4.662,0,0,1-1.523.343.183.183,0,0,0-.144.106l.016.24a.257.257,0,0,1,.074.051c.12,0,.219.006.294.006.605,0,1.181,0,1.534.018s.6-.02.8-.02c.233,0,.567-.019,1,.011a.389.389,0,0,1,.093-.011c.361,0,.721-.017,1.079.007l.058-.013a.417.417,0,0,0,.073-.073v-.01a.414.414,0,0,1,.007-.106.37.37,0,0,1,.016-.093.6.6,0,0,0-.038-.113,2.191,2.191,0,0,0-.336-.064,2.549,2.549,0,0,1-1.024-.269.382.382,0,0,1-.154-.186,8.469,8.469,0,0,1-.057-1.289L29.2,26.26V20.18L29.186,20a1,1,0,0,1,.2-.726A2.005,2.005,0,0,1,30.517,18.909Z"/><path d="M8.887,25.863A3.47,3.47,0,0,0,7.84,24.7a17.387,17.387,0,0,0-2.3-1.3,11.59,11.59,0,0,1-2.626-1.546A1.585,1.585,0,0,1,2.4,20.717a1.815,1.815,0,0,1,.735-1.425,2.838,2.838,0,0,1,1.883-.613,2.918,2.918,0,0,1,1.876.613,3.163,3.163,0,0,1,1,1.606c.124-.016.248-.03.372-.038.006-.095.011-.207.014-.336l.041-.85c0-.015,0-.043,0-.079-.018-.042-.038-.084-.058-.126-.059-.1-.12-.2-.182-.294a1.066,1.066,0,0,0-.09-.1.392.392,0,0,1-.073-.094.375.375,0,0,1-.055-.071L7.741,18.8a.442.442,0,0,1-.107-.109c-.022-.023-.043-.042-.065-.061a.36.36,0,0,1-.093-.079.349.349,0,0,1-.1-.057,1.126,1.126,0,0,1-.121-.059c-.048-.018-.1-.036-.145-.052a6.309,6.309,0,0,0-1.77-.22,4.481,4.481,0,0,0-2.968.923A2.837,2.837,0,0,0,1.27,21.339a2.6,2.6,0,0,0,.311,1.293,4.794,4.794,0,0,0,1.268,1.36A17.31,17.31,0,0,0,5.1,25.24a8.122,8.122,0,0,1,2.3,1.5,2.068,2.068,0,0,1,.573,1.416A2.176,2.176,0,0,1,7.6,29.318a2.435,2.435,0,0,1-1.046.915,3.432,3.432,0,0,1-3.788-.614,3.268,3.268,0,0,1-1.1-1.814.422.422,0,0,1-.061-.124.5.5,0,0,0-.042-.038l-.031-.02c-.019-.012-.04-.021-.06-.032a.183.183,0,0,1-.038-.011.111.111,0,0,0-.023,0,.523.523,0,0,0-.056,0c-.011.006-.105.022-.108.024l-.013,0a.417.417,0,0,1-.047.047c0,.049-.007.1-.009.162a17.443,17.443,0,0,1-.151,1.851h0a.322.322,0,0,1,.018.055l0,.005a.369.369,0,0,1,.011.056c.053.075.108.148.164.221A7.253,7.253,0,0,0,3.792,31.03c.29.029.582.046.878.046a5.814,5.814,0,0,0,2.505-.456,3.525,3.525,0,0,0,1.5-1.356,3.581,3.581,0,0,0,.558-1.924A3.109,3.109,0,0,0,8.887,25.863Z"/><path d="M40.157,30.6a.752.752,0,0,0-.44-.172,4.85,4.85,0,0,1-2.672-1.49l-.094-.088c-.419-.332-.812-.7-1.213-1.047-.218-.193-.436-.382-.655-.57s-.463-.378-.714-.577q-1.707-1.364-2.713-2.3c-.152-.146-.249-.236-.287-.268a.558.558,0,0,1-.114-.134l1.492-1.207,2.47-2.078a9.034,9.034,0,0,1,1.168-.844,10.922,10.922,0,0,1,1.129-.634,4.888,4.888,0,0,1,.937-.232q.077-.018.153-.03a2.758,2.758,0,0,1,.325-.068h0A.419.419,0,0,1,39,18.831a.263.263,0,0,1,.042-.04l.01-.043a.384.384,0,0,1,0-.059.389.389,0,0,1,.008-.083v-.017c0-.012-.005-.024-.006-.037a.234.234,0,0,1-.031-.032.323.323,0,0,1-.057-.023c-.1-.006-.178-.01-.234-.01-.083,0-.2.005-.354.018l-1.5.058c-.07-.007-.162-.009-.315-.013-.687-.019-.964,0-1.232-.01-.011,0-.021,0-.032,0s-.022.005-.034.005a.346.346,0,0,1-.048-.007c-.238,0-.529-.011-.768-.022-.06.013-.061.031-.1.06a.2.2,0,0,0-.068.162.19.19,0,0,0,.091.159,1.566,1.566,0,0,0,.57.09c.351.02.56.05.706.063.1.009.187.019.294.035a.378.378,0,0,1,.13.03.536.536,0,0,1-.032.164c-.062.1-.1.159-.141.215a13.341,13.341,0,0,1-1.522,1.416l-2.623,2.142q-1.311.977-1.848,1.3a2.732,2.732,0,0,0-.382.268q1.56,1.157,2.431,1.9L33.7,28l1.14.91c.37.324.628.56.774.7s.234.228.26.253a1.922,1.922,0,0,1,.315.359,1.985,1.985,0,0,1-.268.019c-.382.014-.737.119-1.091.155-.31.032-.415,0-.5.072l-.01.077a2.4,2.4,0,0,0,.029.331c1.226-.01,2.231-.063,3.15-.063q.343,0,.871.034c.594.041,1.037.009,1.33.009.069,0,.2,0,.38-.013a.3.3,0,0,1,.067-.049l.013-.09Z"/><path d="M87.819,18.481l-.145,0-1.514.047c-.038,0-.268-.015-.688-.047q-.423-.029-.8-.029c-.088,0-.178,0-.267.008,0,.01-.005.023-.009.033a.469.469,0,0,1,.026.261.477.477,0,0,1,.043.076.359.359,0,0,1,.135.058,1.324,1.324,0,0,1,.3.119,2.057,2.057,0,0,1,.5.241.768.768,0,0,1,.263.374,8.944,8.944,0,0,1,.158,1.637l.144,2.75c0,.051-.007.225-.019.522-.009.183-.013.329-.016.438a4.787,4.787,0,0,1,.013.871c.008.2.012.314.012.335a6.36,6.36,0,0,1-.378,2.515,2.752,2.752,0,0,1-1.244,1.3,5.322,5.322,0,0,1-2.494.47,4.531,4.531,0,0,1-1.5-.268A2.794,2.794,0,0,1,79.19,29.5a2.378,2.378,0,0,1-.545-1.048,18.585,18.585,0,0,1-.172-3.243l-.029-4.743.1-1.092a.43.43,0,0,1,.21-.279,1.184,1.184,0,0,1,.6-.167.354.354,0,0,1,.133-.036.489.489,0,0,1,.055-.045v-.177a.485.485,0,0,1,.031-.161.438.438,0,0,1-.039-.036l-1.739.02H76.28l-.641.008h-.056a.341.341,0,0,1-.073.051,2.3,2.3,0,0,1-.011.276.455.455,0,0,1,.006.122.357.357,0,0,1,.043.034c.105.01.222.016.359.016L76.473,19a.349.349,0,0,1,.305.152,1.422,1.422,0,0,1,.154.776V21.38L76.9,23.546l.029,2.681v.662a4.993,4.993,0,0,0,.335,2.068,3.168,3.168,0,0,0,.9,1.074,5.058,5.058,0,0,0,1.752.873,7.19,7.19,0,0,0,1.972.19,5.766,5.766,0,0,0,1.766-.287,4.234,4.234,0,0,0,1.431-.733,3.158,3.158,0,0,0,.819-1,5.247,5.247,0,0,0,.435-1.5,20.157,20.157,0,0,0,.105-2.559l-.028-1,.01-.787-.068-1.982c-.025-.665-.039-1.095-.039-1.293a1,1,0,0,1,.231-.763,3.1,3.1,0,0,1,1.279-.342l.03-.048v-.267A.36.36,0,0,1,87.819,18.481Z"/><path d="M45.053,19.27a.337.337,0,0,1,.182-.166,5.141,5.141,0,0,1,1.122-.2c.3-.038.52-.073.649-.1a2.174,2.174,0,0,0,.018-.263.243.243,0,0,1-.066-.028c-1.065.038-1.923.057-2.567.057l-2.567-.059h-.785a.246.246,0,0,1-.027.017c.007.151.036.247.086.283a3.018,3.018,0,0,0,.9.142,3.249,3.249,0,0,1,1.155.245,1.348,1.348,0,0,1,.107.262c.039.451.058.881.058,1.285,0,.157,0,.293-.01.408l-.019.5.019.4v.889l.01.756-.019.686.038,1.172v1.064l.011,1.017a6.985,6.985,0,0,1-.214,2.481q-.213.258-1.693.353a1.476,1.476,0,0,0-.434.107l.018.29h.185l2.275.011,1.337-.021c.413.021.7.029.862.029.278,0,.711-.008,1.3-.029v-.077a1,1,0,0,0-.028-.213,1.171,1.171,0,0,0-.687-.154,4.067,4.067,0,0,1-.7-.115.956.956,0,0,1-.43-.21.8.8,0,0,1-.183-.431,10.433,10.433,0,0,1-.054-1.384c0-.193.007-.556.02-1.092v-1.7l-.038-4.306.048-1.248A1.568,1.568,0,0,1,45.053,19.27Z"/><path d="M38.705,10.285H38.3a.552.552,0,0,1-.037.142,2.573,2.573,0,0,1-2.383,1.91,1.846,1.846,0,0,1-.226.018c-.079.007-.164.011-.256.014l-1.657.058h-.649c-.779-.007-1.355-.013-1.514-.02-.063-.045-.1-.163-.1-.354l-.009-.593.029-2.7-.02-3.169V4.986l-.009-1.769V2.642q.018-.468.018-.622a.872.872,0,0,1,.327-.767,3.773,3.773,0,0,1,1.025-.108q.89-.034,1-.053A1.807,1.807,0,0,0,33.9.718c-.21-.02-.575-.03-1.093-.03l-.768.058c-.056.006-.274.011-.651.011-.154-.014-.246-.021-.279-.021l-.248.01L30.02.728,28.563.673C28.288.657,28.09.65,27.969.65A1.414,1.414,0,0,0,27.96.8c0,.032,0,.084.009.152q1.336.242,1.5.279a2.334,2.334,0,0,1,.419.153,1.209,1.209,0,0,1,.077.268c.019.332.025,1.174.019,2.521V4.77l-.011,2.243.011,1.715-.067,2.53a2.409,2.409,0,0,1-.115.919.852.852,0,0,1-.6.211c-.228.021-.46.053-.694.1-.029.143-.05.286-.07.429h.228c.2,0,.386-.005.564-.018q.862-.087,5.476-.085l3.58.1c.014-.108.026-.225.039-.353q.105-.9.383-2.249l.005-.029Z"/><path d="M50.387,10.285h-.408a.511.511,0,0,1-.036.142,2.572,2.572,0,0,1-2.382,1.91,1.9,1.9,0,0,1-.226.018c-.08.007-.165.011-.256.014l-1.656.058h-.652c-.779-.007-1.353-.013-1.513-.02q-.1-.067-.1-.354l-.009-.593.03-2.7-.021-3.169V4.986l-.009-1.769V2.642q.02-.468.019-.622a.874.874,0,0,1,.326-.767,3.776,3.776,0,0,1,1.024-.108q.891-.034,1-.053a1.742,1.742,0,0,0,.067-.374c-.21-.02-.575-.03-1.093-.03l-.767.058c-.058.006-.275.011-.652.011C42.919.743,42.827.736,42.8.736l-.249.01L41.7.728,40.244.673C39.97.657,39.771.65,39.649.65c-.005.064-.008.115-.008.154s0,.084.008.152q1.338.242,1.506.279a2.3,2.3,0,0,1,.418.153,1.108,1.108,0,0,1,.077.268c.02.332.027,1.174.02,2.521V4.77l-.01,2.243.01,1.715-.067,2.53a2.356,2.356,0,0,1-.116.919.847.847,0,0,1-.6.211c-.229.021-.459.053-.694.1-.028.143-.05.286-.07.429h.228c.2,0,.385-.005.564-.018q.861-.087,5.477-.085l3.58.1c.012-.108.025-.225.038-.353q.106-.9.383-2.249l.005-.029Z"/><path d="M87.348.526,85.9.555,84.1.507l-.111,0-.032.028a.479.479,0,0,1,.022.289.584.584,0,0,1,.033.053,2.816,2.816,0,0,1,1.112.278.381.381,0,0,1,.182.325.684.684,0,0,1-.019.165,1.928,1.928,0,0,1-.25.477L83.446,4.511,82.064,6.5c-.166.236-.295.414-.392.537l-1.456-2.2c-.147-.211-.287-.433-.421-.662-.339-.573-.658-1.073-.959-1.494a8.991,8.991,0,0,1-.507-.758c-.07-.1-.122-.178-.153-.229a.6.6,0,0,1-.134-.316.287.287,0,0,1,.152-.22.793.793,0,0,1,.342-.128.385.385,0,0,1,.14-.037.517.517,0,0,1,.195-.039l.024,0a.413.413,0,0,1,.089-.009.257.257,0,0,1,.04.005l.016-.01a.613.613,0,0,1,.145-.147c.052-.035.06-.04.025-.016.01-.009.018-.02.029-.029a.4.4,0,0,1,0-.092L79.231.628c-.008-.014-.013-.028-.02-.041L78.242.6q-.86,0-2.163-.051C75.623.538,75.3.531,75.106.526a.283.283,0,0,1-.069.05.505.505,0,0,1-.009.1c0,.015-.005.029-.007.043a.472.472,0,0,1-.016.2.6.6,0,0,1,.015.068,1.789,1.789,0,0,1,.676.165,4.147,4.147,0,0,1,.967,1.082L78.8,5.341l1.253,1.906a3.442,3.442,0,0,1,.408.724,5.747,5.747,0,0,1,.062,1.134q0,2.488-.009,2.66a.589.589,0,0,1-.145.354,3.024,3.024,0,0,1-.721.288l-.973.15a.279.279,0,0,1-.035.042v.335a.221.221,0,0,1,.04.028h1.368l1.648-.011,2.049.013a.318.318,0,0,1,.049-.062c-.007-.1-.012-.209-.014-.314a.491.491,0,0,1-.053-.04,7.149,7.149,0,0,1-1.5-.247c-.064-.038-.115-.147-.154-.325a31.137,31.137,0,0,1-.1-3.521,4.573,4.573,0,0,1,.1-1.132,1.942,1.942,0,0,1,.3-.478q.133-.172.354-.527.681-1.081,1.666-2.4a31.334,31.334,0,0,1,2.393-2.8A1.328,1.328,0,0,1,87.1.947c.083-.006.143-.013.181-.018L87.51.9a1.043,1.043,0,0,0,.21-.03l.029-.334Z"/><path d="M74.525,18.492a.318.318,0,0,1-.067-.054c-.172,0-.274-.007-.308-.007l-1.445.029-1.8-.047H70.85a.352.352,0,0,1-.071.087.458.458,0,0,1,.006.233l.018.027a.381.381,0,0,1,.041.029,2.773,2.773,0,0,1,1.085.274.375.375,0,0,1,.182.325.656.656,0,0,1-.019.163,1.923,1.923,0,0,1-.248.479L70.25,22.415,68.869,24.4c-.167.237-.3.417-.394.538l-1.455-2.2c-.147-.211-.288-.431-.421-.663-.339-.572-.66-1.072-.959-1.493-.211-.288-.379-.539-.507-.756-.071-.1-.122-.18-.155-.23a.614.614,0,0,1-.132-.316.283.283,0,0,1,.152-.22A.5.5,0,0,1,65.1,19a.334.334,0,0,1,.148-.074.388.388,0,0,1,.095-.04,3.634,3.634,0,0,1,.267-.053h.042c.011,0,.021,0,.032,0a.233.233,0,0,1,.03,0h.04l.02,0,.022,0a.277.277,0,0,1,.03,0l.034-.011a.608.608,0,0,1,.132-.131c.052-.037.061-.041.025-.018a.413.413,0,0,0,.037-.036.509.509,0,0,1,0-.088.093.093,0,0,1-.012-.018.3.3,0,0,1-.019-.041l-.969.016q-.861,0-2.163-.049c-.5-.018-.834-.025-1.021-.027a.337.337,0,0,1-.021.031.553.553,0,0,1-.009.121c-.007.034-.013.068-.019.1l0,.019a.28.28,0,0,1,0,.029v.043a.194.194,0,0,1-.006.04h0a.33.33,0,0,1,.063.073,1.724,1.724,0,0,1,.633.161,4.182,4.182,0,0,1,.967,1.082L65.6,23.247l1.254,1.905a3.426,3.426,0,0,1,.407.722,5.678,5.678,0,0,1,.062,1.134c0,1.662,0,2.547-.009,2.662a.58.58,0,0,1-.144.354,3,3,0,0,1-.721.288l-.978.152-.031.028v.337a.45.45,0,0,1,.028.037h1.38l1.662.015,2.013-.014a.36.36,0,0,1,.073-.06c-.007-.1-.012-.2-.014-.3a.329.329,0,0,1-.055-.057,7.393,7.393,0,0,1-1.5-.247.518.518,0,0,1-.153-.327,30.916,30.916,0,0,1-.105-3.519,4.567,4.567,0,0,1,.105-1.133,1.9,1.9,0,0,1,.3-.477c.089-.116.207-.291.353-.527q.68-1.08,1.666-2.4a31.64,31.64,0,0,1,2.394-2.8,1.331,1.331,0,0,1,.316-.162c.082-.007.142-.012.181-.02l.23-.029c.055,0,.1-.006.14-.013a.352.352,0,0,1,.074-.065l.013-.15A.461.461,0,0,1,74.525,18.492Z"/><path d="M76.233,12.6a.383.383,0,0,1-.041-.061,5.614,5.614,0,0,1-1.3-.357,2.28,2.28,0,0,1-.675-.486,11.557,11.557,0,0,1-1.006-1.442L72,8.169a18.782,18.782,0,0,1-.908-1.654,4.394,4.394,0,0,1,.5-.288,2.93,2.93,0,0,0,1.338-4.371A2.747,2.747,0,0,0,71.562.789,9.72,9.72,0,0,0,68.57.473L66.053.5h-.5A2.745,2.745,0,0,1,64.9.492h0l-.021,0-.021,0h-.028a.565.565,0,0,1-.058,0c-.107.013-.176.019-.2.019h-.055c-.01.148.006.329-.014.474a.376.376,0,0,1,.025.054c.127.021.293.047.5.074a1.991,1.991,0,0,1,1.056.341,2.836,2.836,0,0,1,.167,1.328L66.233,4.51l.009,2.4L66.224,8.2l.028,1.139c0,.267-.007.541-.019.822q-.077,1.492-.076,1.732V12a.509.509,0,0,1-.228.288c-.11.039-.7.108-1.472.2a2,2,0,0,0-.129.344.181.181,0,0,1,.027.018c.48-.018.75-.028.8-.028l1.271.01,1.3-.019c.076,0,.174,0,.3.009.237.013.641.02,1.215.02a1.646,1.646,0,0,0,.214-.022l.023-.013a1.15,1.15,0,0,0-.048-.3l-.3-.072a5.579,5.579,0,0,1-1.077-.331.6.6,0,0,1-.264-.292,1.811,1.811,0,0,1-.076-.506V8.035c0-.63.01-1.049.029-1.253l.268.009.813-.009a1.046,1.046,0,0,1,.494.1,1.748,1.748,0,0,1,.473.5l1.417,2.59q.919,1.563,1.6,2.867c.147.012.261.02.345.02q1.747,0,3.053-.02a.194.194,0,0,1,.021-.02c0-.048.008-.091.008-.125S76.236,12.638,76.233,12.6ZM71.014,5.7A2.575,2.575,0,0,1,69.99,6.1a9.1,9.1,0,0,1-1.589.162c-.084,0-.461,0-.633-.011-.026-.771-.039-1.4-.039-1.9l.01-.736-.048-1.786c0-.179-.02-.468,0-.8.275-.019.783.007.954.007a4.033,4.033,0,0,1,1.8.371,2.41,2.41,0,0,1,1.067.929,2.785,2.785,0,0,1,.413,1.377A2.638,2.638,0,0,1,71.67,4.86,2.113,2.113,0,0,1,71.014,5.7Z"/><path d="M20.772,28.9a.315.315,0,0,1-.081-.058.349.349,0,0,1-.088-.028c-.115-.032-.21-.062-.285-.021a.489.489,0,0,1-.1.04,4.491,4.491,0,0,1-.66,1.051,2.055,2.055,0,0,1-.989.563,11.507,11.507,0,0,1-2.409.159q-.75,0-1.261-.015c-.341-.009-.537-.013-.587-.013l-.572.009a.857.857,0,0,1-.693-.211,3.014,3.014,0,0,1-.122-1.132L12.92,28.16l.009-1.112-.009-1.767.009-.315a15.422,15.422,0,0,1,1.707-.059h.609c.456,0,.8,0,1.031-.013s.391-.014.479-.014a1.27,1.27,0,0,1,.867.245,1.712,1.712,0,0,1,.359.693.334.334,0,0,1,.081.124.456.456,0,0,1,.112.124.377.377,0,0,1,.06.042h0a.363.363,0,0,1,.132.046.279.279,0,0,1,.034.009c.019,0,.038,0,.055.006a.31.31,0,0,1,.076-.01.273.273,0,0,1,.051.007c-.03-.38-.046-.726-.046-1.038,0-.847.008-1.458.023-1.839a.171.171,0,0,1-.018-.02.566.566,0,0,1-.058,0c-.014,0-.028,0-.044,0a.518.518,0,0,1-.08-.007l-.017,0a.783.783,0,0,0-.235.165.414.414,0,0,1-.049.093.4.4,0,0,1-.057.135,1.3,1.3,0,0,1-.169.558c-.056.078-.249.144-.581.2q-1.595,0-2.606.038a1.891,1.891,0,0,1-.2.01c-.112,0-.33-.007-.656-.02-.206-.006-.362-.01-.468-.01h-.16a.846.846,0,0,1-.225-.028v-1.33c-.032-1.456-.047-2.221-.047-2.3a3.18,3.18,0,0,1,.16-1.349q.1-.133.619-.134h.235l2.674-.057c.131,0,.267,0,.4.009.513.012.8.019.854.019a2.556,2.556,0,0,1,.3.014c.01,0,.018,0,.029,0h.021a.429.429,0,0,1,.129.023.347.347,0,0,1,.133.031.49.49,0,0,1,.32.212c.006.008.011.019.018.028l0,.007a.37.37,0,0,1,.075.093.384.384,0,0,1,.056.082,1.652,1.652,0,0,1,.115.183.457.457,0,0,1,.049.1c.015.029.027.058.04.088a.05.05,0,0,1,.013.028.433.433,0,0,1,.047.157.407.407,0,0,1,.04.113c.007.029.015.054.022.083a2.256,2.256,0,0,1,.134.553.346.346,0,0,1,.067.059.378.378,0,0,1,.18-.054.474.474,0,0,1,.093-.04.446.446,0,0,1,.026-.078c-.017-.342-.028-.725-.028-1.15a3.134,3.134,0,0,1,.043-.346,3.219,3.219,0,0,0,.042-.412.523.523,0,0,0-.066-.163l-.093-.047L18.9,18.8l-.2.028-1.331.008c-.147-.005-.279-.012-.4-.015h-.985a.494.494,0,0,1-.1-.013c-.147,0-.321.011-.527.02q-.693.027-1.931.028l-1.012-.024a3.968,3.968,0,0,1-.918,0l-.414.009c-.359,0-.706-.015-1.044-.047a.573.573,0,0,1-.066.03c-.009.121-.024.242-.043.365a.307.307,0,0,1,.055.036c.061,0,.123.008.189.009a2.368,2.368,0,0,1,1.144.211,2.758,2.758,0,0,1,.122,1.1l.046,2.734-.009,2.406.019,1.151-.01,2.436.01.671a.99.99,0,0,1-.273.537,2.883,2.883,0,0,1-.892.154.317.317,0,0,1-.082.052c-.016.065-.033.129-.05.194a.445.445,0,0,1,0,.082v.012c.019.041.04.084.06.125l.039,0c.48-.01,1.083-.032,1.813-.065.125-.006.26-.01.4-.01H13.67l2.812-.039L17.664,31l2.635-.03h.158a.309.309,0,0,1,.08-.053c.009-.018.02-.031.027-.048.039-.224.059-.449.1-.672a11.129,11.129,0,0,1,.11-1.122c0-.023.008-.049.013-.077A.459.459,0,0,1,20.772,28.9Z"/><path d="M62.54,10.786a.255.255,0,0,1-.081-.056.268.268,0,0,1-.087-.027c-.116-.034-.212-.063-.286-.023a.542.542,0,0,1-.1.041,4.545,4.545,0,0,1-.658,1.053,2.1,2.1,0,0,1-.99.562,11.781,11.781,0,0,1-2.409.157q-.75,0-1.261-.014c-.342-.009-.537-.014-.587-.014l-.571.009c-.358,0-.588-.07-.7-.211a3.037,3.037,0,0,1-.122-1.132l-.009-1.082L54.7,8.936l-.009-1.764.009-.318A15.713,15.713,0,0,1,56.4,6.8h.61c.456,0,.8,0,1.03-.015s.392-.015.479-.015a1.266,1.266,0,0,1,.868.245,1.737,1.737,0,0,1,.36.694.378.378,0,0,1,.08.124.433.433,0,0,1,.111.123A.269.269,0,0,1,60,8h0a.35.35,0,0,1,.132.045l.035.009c.018,0,.037,0,.054,0a.357.357,0,0,1,.076-.007.421.421,0,0,1,.051,0c-.031-.378-.046-.727-.046-1.038,0-.846.007-1.456.021-1.837l-.015-.022a.387.387,0,0,1-.059,0c-.015,0-.027,0-.043,0a.476.476,0,0,1-.08-.009l-.018,0a.779.779,0,0,0-.235.166.327.327,0,0,1-.05.092.393.393,0,0,1-.056.137,1.31,1.31,0,0,1-.168.557,1.069,1.069,0,0,1-.581.2c-1.064,0-1.933.015-2.609.04a1.635,1.635,0,0,1-.2.008c-.112,0-.331,0-.656-.018-.206-.006-.363-.01-.469-.01h-.159a.839.839,0,0,1-.225-.029V4.969q-.048-2.184-.047-2.3a3.237,3.237,0,0,1,.159-1.351c.069-.09.275-.133.619-.133h.236l2.674-.058c.131,0,.266,0,.4.009.512.012.8.021.852.021a2.8,2.8,0,0,1,.3.013.145.145,0,0,1,.029,0l.01,0,.011,0a.39.39,0,0,1,.129.024.394.394,0,0,1,.134.029.5.5,0,0,1,.32.214l.018.029.005.007a.389.389,0,0,1,.074.092.488.488,0,0,1,.056.081c.041.06.08.122.115.183a.549.549,0,0,1,.05.1c.012.028.027.058.039.089a.043.043,0,0,1,.011.028.424.424,0,0,1,.048.155.405.405,0,0,1,.04.115c.008.027.016.055.022.081a2.251,2.251,0,0,1,.135.555.332.332,0,0,1,.067.057.389.389,0,0,1,.181-.054.5.5,0,0,1,.091-.038.489.489,0,0,1,.027-.079c-.019-.343-.029-.725-.029-1.152,0-.043.015-.16.043-.344a2.886,2.886,0,0,0,.042-.412A.515.515,0,0,0,61.5.767L61.41.718,60.668.692l-.2.026L59.141.729l-.4-.019H57.76A.4.4,0,0,1,57.66.7l-.525.02Q56.441.746,55.2.746L54.19.724a3.86,3.86,0,0,1-.918-.008l-.414.013c-.358,0-.706-.019-1.044-.05a.437.437,0,0,1-.065.029c-.01.124-.024.245-.043.366a.528.528,0,0,1,.055.037c.06,0,.122.007.188.008a2.364,2.364,0,0,1,1.144.212,2.732,2.732,0,0,1,.122,1.1l.047,2.732-.01,2.408.019,1.15-.009,2.434.009.673a1,1,0,0,1-.272.537,2.936,2.936,0,0,1-.892.155.33.33,0,0,1-.083.051c-.015.065-.033.129-.049.194a.582.582,0,0,1,0,.084v.01c.019.043.04.083.06.124a.218.218,0,0,1,.038.005c.48-.013,1.083-.035,1.815-.067.124-.007.258-.011.4-.011h1.144l2.814-.038,1.181.01,2.634-.028h.159a.3.3,0,0,1,.08-.054c.008-.016.019-.033.028-.048.039-.224.058-.449.1-.671a10.544,10.544,0,0,1,.11-1.123c0-.022.008-.05.013-.078A.468.468,0,0,1,62.54,10.786Z"/><path d="M63.754,30.641a.254.254,0,0,1-.042-.058,5.744,5.744,0,0,1-1.3-.359,2.306,2.306,0,0,1-.675-.484A11.993,11.993,0,0,1,60.732,28.3L59.52,26.213a18.823,18.823,0,0,1-.909-1.656,4.762,4.762,0,0,1,.5-.286,2.929,2.929,0,0,0,1.338-4.37,2.76,2.76,0,0,0-1.364-1.068,9.679,9.679,0,0,0-2.992-.316l-2.517.028h-.505a2.746,2.746,0,0,1-.653-.008h0l-.021,0-.022,0-.011,0-.01,0-.006,0a.381.381,0,0,1-.059.007c-.106.01-.177.016-.2.016l-.055,0c-.01.148,0,.327-.014.473a.538.538,0,0,1,.024.055c.128.021.292.045.5.076A1.974,1.974,0,0,1,53.6,19.5a2.839,2.839,0,0,1,.168,1.33l-.01,1.72.01,2.405-.019,1.289.027,1.138c0,.269,0,.541-.018.824q-.076,1.491-.076,1.731v.106a.505.505,0,0,1-.229.285c-.109.041-.7.108-1.471.2a2.237,2.237,0,0,0-.13.344.275.275,0,0,1,.029.017c.479-.017.748-.027.8-.027l1.269.01,1.3-.02c.076,0,.175,0,.295.01q.354.021,1.215.02a1.646,1.646,0,0,0,.214-.022L57,30.853a1.228,1.228,0,0,0-.049-.3l-.294-.071a5.651,5.651,0,0,1-1.078-.331.605.605,0,0,1-.263-.291,1.809,1.809,0,0,1-.077-.508V26.08c0-.631.011-1.05.03-1.254l.268.01.815-.01a1.046,1.046,0,0,1,.491.1,1.735,1.735,0,0,1,.474.5l1.416,2.588q.921,1.563,1.6,2.868c.147.011.263.02.345.02q1.749,0,3.054-.02a.2.2,0,0,1,.021-.02c.005-.048.008-.09.008-.123S63.757,30.681,63.754,30.641Zm-5.22-6.9a2.622,2.622,0,0,1-1.024.406,9.092,9.092,0,0,1-1.589.162c-.083,0-.46,0-.633-.01q-.037-1.157-.038-1.9l.01-.737-.048-1.785c0-.18-.022-.469,0-.8.274-.019.781,0,.952,0a4.021,4.021,0,0,1,1.806.373,2.4,2.4,0,0,1,1.067.926,2.8,2.8,0,0,1,.412,1.376,2.65,2.65,0,0,1-.263,1.147A2.135,2.135,0,0,1,58.534,23.741Z"/><path d="M13.646,7.511V7.505A.6.6,0,0,1,13.6,7.4l-.024-.023-.011-.008a.324.324,0,0,1-.037-.019.116.116,0,0,1-.031-.007h0c-.142,0-.27-.009-.38-.009l-.883.011-.977-.039q-.836-.019-1.206-.02c-.919,0-1.566.018-1.948.054a.3.3,0,0,1-.047.04.492.492,0,0,1,0,.094.462.462,0,0,1,.026.129,1.58,1.58,0,0,1,.111.132h0a.229.229,0,0,1,.046.017l.149-.006.379.029q1.158.086,1.377.358a4.514,4.514,0,0,1,.219,1.93,4.511,4.511,0,0,1-.129,1.34,1.414,1.414,0,0,1-.479.617,2.73,2.73,0,0,1-1.044.436,5.61,5.61,0,0,1-1.263.163,6.392,6.392,0,0,1-1.33-.105,4.181,4.181,0,0,1-1.356-.594,6.705,6.705,0,0,1-1.514-1.4A6.368,6.368,0,0,1,2.26,8.77a5.986,5.986,0,0,1-.351-2.116,6.162,6.162,0,0,1,.958-3.485,5.323,5.323,0,0,1,2.308-2.03,6.6,6.6,0,0,1,2.6-.411,3.667,3.667,0,0,1,2.311.727,5.441,5.441,0,0,1,1.582,2.183l.265-.048c0-.158-.019-.459-.057-.9l-.105-1.455A6.724,6.724,0,0,0,10.126.584,10.357,10.357,0,0,0,7.453.3a8.235,8.235,0,0,0-3.74.709A6.449,6.449,0,0,0,.879,3.614,6.743,6.743,0,0,0,0,6.893,6.554,6.554,0,0,0,.561,9.525,5.523,5.523,0,0,0,1.8,11.268a6.184,6.184,0,0,0,2.07,1.345,8.326,8.326,0,0,0,3.08.482,13.857,13.857,0,0,0,2.421-.219,7.276,7.276,0,0,0,1.5-.449,2.707,2.707,0,0,0,.76-.4.787.787,0,0,0,.237-.379,7.624,7.624,0,0,0,.1-1.647l-.01-1.252a1.447,1.447,0,0,1,.1-.719.629.629,0,0,1,.5-.22l.617.009a2.134,2.134,0,0,0,.341-.035.443.443,0,0,1,.062-.03.365.365,0,0,0,.027-.03.225.225,0,0,1,.016-.031.64.64,0,0,1,.023-.114A.54.54,0,0,1,13.646,7.511Z"/><path d="M26.632,12.465l-.222-.035s-.17-.031-.231-.048a.4.4,0,0,1-.052-.018,2,2,0,0,1-.323-.107,1.081,1.081,0,0,1-.121-.045.349.349,0,0,1-.116-.052.36.36,0,0,1-.1-.059,1.611,1.611,0,0,1-.355-.552q-.192-.414-.8-2.236L23.538,7.18,22.085,3.244q-.393-.985-.565-1.483A13.314,13.314,0,0,0,20.793.009L20.458,0l-.281.02q-.288.9-.489,1.435-.805,2.123-1.015,2.719l-.9,2.518c-.147.42-.3.824-.459,1.206q-.078.181-.374,1.034A22.931,22.931,0,0,1,15.82,11.7a1.462,1.462,0,0,1-.575.632,3.786,3.786,0,0,1-.87.135c-.085.005-.148.007-.193.008a.37.37,0,0,1-.089.018c-.012.009-.026.015-.038.024s-.012.021-.019.031v.237a.239.239,0,0,0,.026.021l.057.011c.044,0,.085,0,.122,0,.06,0,.147.011.256.015l.026,0,.026,0,.024,0h.03l.033,0h.084q.5-.021.7-.021t.67.021c.644.029,1.264.05,1.758.052a.449.449,0,0,1,.093-.01l-.021-.007c.013,0,.045,0,.058,0a.142.142,0,0,1,.059-.014l0,0a.418.418,0,0,1,.05-.043c0-.005-.006-.011,0-.015a.135.135,0,0,1,.018-.025l.008-.033a.44.44,0,0,1,.009-.115v-.01a.452.452,0,0,1-.011-.053l-.011-.018-.05-.025a.4.4,0,0,1-.072-.013l-.839-.073a4.263,4.263,0,0,1-.537-.106.866.866,0,0,1-.085-.289,13.516,13.516,0,0,1,.535-1.655L17.9,7.745a4.415,4.415,0,0,1,.163-.412,5.958,5.958,0,0,1,.718-.048l.6.01,2.05-.021a4.168,4.168,0,0,1,.688.07q.89,2.406,1.018,2.838t.3.911a6.1,6.1,0,0,1,.249.891.781.781,0,0,1-.021.309,2.362,2.362,0,0,1-.629.058l-.581.037a.294.294,0,0,1-.064.019.393.393,0,0,1-.047.032c-.005.021-.009.041-.015.059a1.44,1.44,0,0,1,0,.161.352.352,0,0,1,.014.06l.012.037a.537.537,0,0,1,.051.056c.071.005.142.008.209.008l1.159-.013.956.02c.825.021,1.4.029,1.724.029l.237,0A.469.469,0,0,0,26.632,12.465Zm-6.042-5.6q-1.311,0-2.336-.057L18.2,6.768a1.775,1.775,0,0,0,.1-.3,4.641,4.641,0,0,1,.168-.517c.089-.246.176-.493.259-.742q.267-.834.881-2.324.366-.871.422-.986l.1.171.87,2.211q.066.172.689,1.838a6.439,6.439,0,0,1,.219.7C21.524,6.848,21.088,6.864,20.59,6.864Z"/></g></g></svg>