<svg xmlns="http://www.w3.org/2000/svg" viewBox="0 0 154.09 19.465"><title>logo_ja</title><g id="レイヤー_2" data-name="レイヤー 2"><g id="レイヤー_1-2" data-name="レイヤー 1"><path d="M14.285,8.624c-.567.12-1.139.253-1.714.339a1.388,1.388,0,0,1-.64.16h-.2A14.294,14.294,0,0,1,9,9.936c-.385,0-.47-.192-.662-.919a13.885,13.885,0,0,1-.385-1.923c0-.235.022-.406.406-.534.235-.064.427-.128,2.159-.469,1.559-.3,1.965-.385,1.965-.813,0-.335-.556-.771-1.223-.788l0,0a2.123,2.123,0,0,1-.313.083A5.269,5.269,0,0,1,10.2,4.8l-.3.135a13.161,13.161,0,0,1-1.859.576c-.3,0-.535,0-.727-1.388-.018-.112-.037-.407-.056-.728-.035-.211-.067-.423-.106-.633-.011-.065-.024-.13-.037-.2s-.059-.109-.084-.165c-.063-.141-.116-.274-.164-.4A4.285,4.285,0,0,0,5.2,1.432a1.707,1.707,0,0,0-.261.023A1.161,1.161,0,0,1,4.7,1.6a1.567,1.567,0,0,1,.11.409,1.282,1.282,0,0,1,.232.4,1.388,1.388,0,0,1,.227.379,5.961,5.961,0,0,1,.991,2.712c0,.406-.321.534-1.069.705a19.453,19.453,0,0,1-2.371.318,4.006,4.006,0,0,1-1.052.123,2,2,0,0,1-.3.112c.09.4,1.457,1.113,1.932,1.113a27.8,27.8,0,0,1,2.97-.812c.32,0,.406.215.555.749a11.84,11.84,0,0,1,.449,2.136c0,.363-.128.449-.684.556a27.091,27.091,0,0,1-4.747.718,2.061,2.061,0,0,1-.648.015c.191.026-.363-.013-.3-.012H.95a2.028,2.028,0,0,1-.464.12c-.093.012-.188.012-.281.021a2.446,2.446,0,0,1-.2.138,4.029,4.029,0,0,0,1.805,1.239,16.336,16.336,0,0,1,1.711-.273,1.743,1.743,0,0,1,.205-.086c1.047-.341,3.589-.94,3.675-.94.384,0,.491.277.555.662.107.492.577,2.821.684,3.355.171.9.513,2.756,1.453,2.756.321,0,.47-.406.47-.812,0-.94-1.538-5.3-1.538-5.854,0-.406.042-.534.94-.727a22.685,22.685,0,0,1,3.846-.62c.77,0,1.645-.02,1.645-.662C15.451,9.218,15.1,8.751,14.285,8.624Z"/><path d="M15.024,1c-.129,0-.812,0-.812.214,0,.064.064.149.278.256a5.459,5.459,0,0,1,1.794,1.282c.364.491.641.854,1.09.854.385,0,.556-.406.556-.64C17.93,1.753,16.178,1,15.024,1Z"/><path d="M12.951,2.864c-.192,0-.385.043-.385.15,0,.084.214.277.278.342a5.9,5.9,0,0,1,1.411,1.388c.576.833.769,1.026,1.068,1.026.406,0,.662-.556.662-.813C15.985,4,14.49,2.864,12.951,2.864Z"/><path d="M35.387,7.833h-.709a5.09,5.09,0,0,1-1.055.107c-.032.009-.064.021-.1.029s-.038,0-.056.008c-.076.036-.143.067-.179.079a20.886,20.886,0,0,1-3.162.662c-.319,0-.429-.488-.467-1.115a1.459,1.459,0,0,1-.043-.17,1.562,1.562,0,0,1-.116-.687,1.224,1.224,0,0,1-.05-.209,2.49,2.49,0,0,1-.133-.618,2.372,2.372,0,0,0-1.264-.256,3.614,3.614,0,0,0-.567.041c.033.071.069.141.1.215s.054.147.081.222a1.407,1.407,0,0,1,.213.554,1.559,1.559,0,0,1,.107.35,4.767,4.767,0,0,1,.582,1.78.389.389,0,0,1-.3.342,16.013,16.013,0,0,1-2.991.384c-.05,0-.121,0-.192-.006a1.442,1.442,0,0,1-.336.037,1.365,1.365,0,0,1-.174-.018,6.561,6.561,0,0,1-1.088.1c0,.038,0,.077,0,.1a.854.854,0,0,0,.428.77c.525.358.79.535.959.623a1.5,1.5,0,0,1,.222-.052q.671-.186,1.348-.343a13.015,13.015,0,0,1,2.235-.614c.3,0,.343.107.6.962.3.983,1.454,5.962,1.56,6.3a2.247,2.247,0,0,0,.958,1.059,1.425,1.425,0,0,1,.2.02c.025,0,.049-.008.075-.008s.048.006.072.008a1.262,1.262,0,0,1,.272-.146,1.382,1.382,0,0,0,.152-.633,5.764,5.764,0,0,0-.6-1.966,49.213,49.213,0,0,1-1.838-5.7c0-.342.086-.363.855-.556.3-.064,2.863-.682,2.97-.682.085,0,.235.02.235.17,0,.534-1.859,2.521-1.859,2.755a.112.112,0,0,0,.107.108,9.582,9.582,0,0,0,1.944-1.154,6.6,6.6,0,0,1,1.3-.861,1.776,1.776,0,0,1,.356-.188c-.157.059,0-.019.1-.07.117-.107.238-.21.359-.313a1.625,1.625,0,0,1,.036-.269A3.135,3.135,0,0,0,35.387,7.833Z"/><path d="M56.311,2.629c-.3,0-1.773.362-2.094.427a20.467,20.467,0,0,1-3.419.235c-.181,0-.431,0-.676-.023a1.357,1.357,0,0,1-.651-.045l-.066-.018-.054,0a1.371,1.371,0,0,1-.218.019.544.544,0,0,1-.06-.008,1.27,1.27,0,0,1-.262-.009l-.02,0c.11.339.727,1.519,1.751,1.519.149,0,4.744-.406,5.085-.449,1.239-.107,1.987-.171,1.987-.834C57.614,2.821,56.674,2.629,56.311,2.629Z"/><path d="M58.3,6.721a1.579,1.579,0,0,1-.291.028c-.013,0-.024,0-.036,0-.159.06-.354.149-.424.177-.021,0-1.431.128-1.474.128-.79.086-5.043.642-6.8.642a6.39,6.39,0,0,1-.677-.039,1.288,1.288,0,0,1-.187.019H48.1a1.209,1.209,0,0,1-.121-.011c-.04,0-.077.011-.118.011h-.079a1.25,1.25,0,0,1-.137-.017,1.5,1.5,0,0,1-.181.017,1.533,1.533,0,0,1-.184-.017,1.075,1.075,0,0,1-.121.016,1.235,1.235,0,0,1-.271.185,5.3,5.3,0,0,0,1.359,1.481h.331a1.451,1.451,0,0,1,.288.031,1.492,1.492,0,0,1,.268-.031c.034,0,.063.008.1.009s.041-.009.063-.009h.318a1.141,1.141,0,0,1,.2.021.974.974,0,0,1,.11-.012,1.4,1.4,0,0,1,.464-.086c1.455-.342,6.053-1.14,6.723-1.14.3,0,.448.15.448.406,0,.449-1.752,5.065-8.418,8.654-.129.064-.727.341-.769.384a.236.236,0,0,0-.043.129.17.17,0,0,0,.192.17,15.078,15.078,0,0,0,3.782-1.389,14.171,14.171,0,0,0,6.025-5.7c.33-.514.541-.835.729-1.076.241-.463.5-.922.757-1.376a1.659,1.659,0,0,1,.007-.345A4.965,4.965,0,0,0,58.3,6.721Z"/><path d="M72.546,9.466c-.022-.512-.064-2.436-.064-4.914,0-.087.027-.421.039-.6a1.446,1.446,0,0,1-.058-.267,2.805,2.805,0,0,0-1.626-.947,2.344,2.344,0,0,0-.291.019,1.264,1.264,0,0,1-.12.133h0c0,.192,0,.383,0,.574a1.434,1.434,0,0,1,.282.674,7.118,7.118,0,0,1,.337,3.023c0,.385,0,1.218-.042,2.18,0,.171-.107.9-.107,1.068,0,.555.491,1.688.961,1.688.321,0,.812-.534.812-1.089C72.674,10.791,72.568,9.723,72.546,9.466Z"/><path d="M79.217,2.983a1.582,1.582,0,0,1,0-.574,1.248,1.248,0,0,1-.175-.3,3.522,3.522,0,0,0-1.983-.532l-.121,0c.122.567.265,1.134.372,1.7A6.531,6.531,0,0,1,77.546,5c.143,4.311-.36,7.78-4.484,12.181-.256.278-1.645,1.646-1.645,1.731,0,.064.043.107.128.107a8.513,8.513,0,0,0,1.923-1.26,13.727,13.727,0,0,0,5.552-9.7c.065-.748.086-3.953.171-4.53l0-.014A1.565,1.565,0,0,1,79.217,2.983Z"/><path d="M102.572,8.782c-.107,0-.342.023-.47.023-3.119.17-10.577.447-11.281.447a11.648,11.648,0,0,1-2.608-.192c-.107-.021-.619-.255-.726-.255s-.171.127-.171.255a2.631,2.631,0,0,0,1.122,1.762c.3-.013.594-.026.892-.035.477-.029.955-.039,1.435-.035.048-.011.091-.021.12-.025.512-.107,5.405-.384,8.354-.384.427,0,2.564.042,3.055.042.9,0,1.774-.064,1.774-.662C104.068,9.573,103.876,8.782,102.572,8.782Z"/><path d="M128.918,1.86c-.013-.026-.664-.6-1.255-1.06a15.243,15.243,0,0,0-1.674.675,1.158,1.158,0,0,1-.168.087,1.31,1.31,0,0,1-.686.185c-.015,0-.027,0-.042,0-.116.009-.249.01-.407.01H114.132c-1.005,0-1.881-.043-2.927-.086-.15,0-.792-.064-.941-.064-.043,0-.086,0-.086.043s.022.042.108.149l.405.491c.064.086.107.129.193.129.064,0,.363-.043.448-.043.214-.021.812-.063,2.693-.063H116.4c.342,0,.555,0,.555.3A12.4,12.4,0,0,1,115.8,5.77a32.089,32.089,0,0,1-5.3,7.478,4.21,4.21,0,0,0-.6.769.114.114,0,0,0,.106.107,11.931,11.931,0,0,0,4.059-3.525c.492-.621.534-.685.663-.685.171,0,.213.171.277.6a14.83,14.83,0,0,1,.086,2.2c0,1.6-.064,4-.107,4.893-.021.149-.085.919-.085,1.089,0,.364.149.577.555.577a1.214,1.214,0,0,0,1.261-1.239c.064-.492.555-.492.727-.492h6.538c.833,0,.833.321.833.856,0,.128,0,.64.406.64a1.346,1.346,0,0,0,1.41-1.324c0-.791-.171-4.68-.171-5.556,0-.2,0-.354,0-.5a.577.577,0,0,1-.018-.271c.008-.044.023-.085.032-.129a1.388,1.388,0,0,1,.136-.573q.144-.528.319-1.049a.467.467,0,0,1,.033-.057,3.258,3.258,0,0,0-1.465-.9c-.194,0-.3.107-.707.492a.927.927,0,0,1-.768.342h-6.132a2.383,2.383,0,0,1-1.39-.278c-.7-.47-.768-.533-.768-.727,0-.171.042-.256.491-.854a29.678,29.678,0,0,0,2.52-4.423c.386-.833.407-.918.941-.918h8.076c1.069,0,1.176,0,1.176-.3A.364.364,0,0,0,128.918,1.86Zm-12.2,8.483c.107-.278.427-.278.641-.278h6.774c.725,0,.725,0,.725,3.333a32.151,32.151,0,0,1-.085,3.312c-.106.277-.427.277-.64.277h-6.774c-.193,0-.513,0-.619-.277a27.594,27.594,0,0,1-.107-3.1C116.632,13.162,116.632,10.556,116.717,10.343Z"/><path d="M139.839,5.321h1.239c.47,0,.876,0,.876-.342,0-.21-.377-.583-.747-.882a2.107,2.107,0,0,1-.405.157,5.342,5.342,0,0,1-.788.332.47.47,0,0,1-.168.021.785.785,0,0,1-.413.116c-.3,0-.3-.086-.3-.876a13.944,13.944,0,0,1,.128-2.159.779.779,0,0,1,.052-.094c0-.093.009-.188.011-.282,0-.133-.006-.268-.008-.4,0-.09,0-.179-.01-.269,0-.012,0-.02,0-.032,0-.038,0-.076,0-.114-.385-.115-1.5-.433-1.67-.433s-.235.022-.235.129a3.333,3.333,0,0,0,.256.726,4.486,4.486,0,0,1,.086,1.047c0,2.629,0,2.757-.705,2.757-.3,0-1.732-.128-2.073-.128-.022,0-.065,0-.065.042s.022.064.087.149l.405.492c.086.085.128.15.193.15.214,0,1.239-.107,1.474-.107a.512.512,0,0,1,.577.513,49.677,49.677,0,0,1-2.863,9.636,10.28,10.28,0,0,0-.62,1.5c.043,0,.256-.236.32-.3a13.308,13.308,0,0,0,1.881-2.884c.213-.4,1.239-2.585,1.26-2.585.086,0,.086.32.086.405,0,.535-.022,3.184-.022,3.783,0,.94,0,1.5-.042,2.308-.022.191-.086,1.089-.086,1.217,0,.47.193.555.642.555a.932.932,0,0,0,1.068-.939c0-.128-.043-1-.043-1.2-.022-1.175-.064-8.14-.064-9,0-.042,0-.235.042-.235a7.433,7.433,0,0,1,1.069,1.945c.278.705.385,1,.812,1,.512,0,.726-.662.726-1.026,0-.683-.235-.854-2.222-2.179-.448-.3-.448-.385-.448-1.26C139.134,5.6,139.134,5.321,139.839,5.321Z"/><path d="M145.885,7.2c.15,0,.192.086.235.256.107.449.278.62.6.62.833,0,.833-.7.833-.983a3.864,3.864,0,0,0-2.094-3.076c-.064,0-.064.085-.064.107a22,22,0,0,1,.534,2.136c0,.149-.085.278-.384.363-.192.043-.9.213-1.048.213a.4.4,0,0,1-.448-.4c-.043-.15-.086-3.269-.086-3.568,0-.513.107-.6.449-.684a9.167,9.167,0,0,1,3.077-.492c.15,0,.342-.085.342-.256C147.83,1.047,146.483,0,146.4,0c-.128,0-.513.555-.619.641a10.213,10.213,0,0,1-1.9,1.112.536.536,0,0,1-.406-.043,3.7,3.7,0,0,0-1.026-.342c-.064,0-.213,0-.213.107,0,.043.256.747.278.9a19.362,19.362,0,0,1,.234,4.252c0,.6-.427.6-.79.6-.107,0-.577-.086-.684-.086a.23.23,0,0,0-.15.043c.086.235.641,1.816,1.069,1.816.085,0,.428-.342.534-.385C142.851,8.547,145.779,7.2,145.885,7.2Z"/><path d="M152.317,15.214c0-.449,0-2.842.064-3.056a.673.673,0,0,1,.052-.155.927.927,0,0,1,.173-.51c.011-.014.026-.024.038-.039.023-.13.049-.261.075-.391a12.477,12.477,0,0,0-1.534-.891c-.151,0-.62.469-.727.533a1.5,1.5,0,0,1-.962.236h-3.888a4.438,4.438,0,0,1-1.2-.129c-.277-.064-1.453-.513-1.645-.513-.043,0-.107.044-.107.086,0,.214.278,1.089.3,1.26s.064,5.919.064,6.645c-.021.108-.064.471-.064.556,0,.192,0,.534.534.534a1.025,1.025,0,0,0,1.069-.9c.042-.257.149-.427.6-.427H150.2c.469,0,.576.234.6.491.043.3.085.7.79.7.855,0,.876-.6.876-1.068,0-.235-.021-.343-.107-1.367A13.311,13.311,0,0,1,152.317,15.214Zm-5.428,2.008a.7.7,0,0,1-.662.257H145.2c-.769,0-.769-.086-.769-2.051,0-.577.3-.663.749-.663h1.046c.62,0,.748.214.748.726C146.975,16.923,146.975,17.094,146.889,17.222Zm-.683-3.013h-1.025c-.77,0-.77-.149-.77-1.367,0-1.2,0-1.346.77-1.346h1.025c.769,0,.769.149.769,1.367C146.975,14.06,146.975,14.209,146.206,14.209Zm3.781,3.27h-.811c-.428,0-.62,0-.77-.257a14.89,14.89,0,0,1-.064-1.752c0-.7.322-.7.834-.7h.811c.449,0,.62,0,.77.277a11.114,11.114,0,0,1,.086,1.752C150.843,17.479,150.5,17.479,149.987,17.479Zm.108-3.27h-1.026c-.748,0-.748-.17-.748-1.346,0-1.2,0-1.367.748-1.367H150.1c.726,0,.748.128.748,1.346C150.843,14.082,150.821,14.209,150.1,14.209Z"/><path d="M152.793,1.881a.444.444,0,0,1-.076-.016c-.273.141-.552.271-.837.387a.406.406,0,0,1-.172.024,1.038,1.038,0,0,1-.481.1h-.342c-1,0-1.944-.021-2.927-.063-.128-.023-.791-.087-.94-.087-.064,0-.085.022-.085.064a.312.312,0,0,0,.085.129l.427.492c.064.084.107.149.171.149.085,0,.6-.065.7-.065a.522.522,0,0,1,.578.6c0,.213-.086.92-.108,1.154a12.408,12.408,0,0,1-1.2,4.316c-.064.149-.641.876-.641.918a.045.045,0,0,0,.042.043A4.109,4.109,0,0,0,148.92,8.27a.329.329,0,0,1,.277-.193,2.18,2.18,0,0,1,1.3,1.154c.149.3.235.513.449.513,1.5,0,1.879-1.24,2.072-2.072.128-.6.428-3.718.449-3.783.042-.128.619-.7.619-.875C154.09,2.78,153.257,2.188,152.793,1.881Zm-1.074,4.85c-.15.855-.278,1.367-.685,1.367-.127,0-1.025-.149-1.41-.213-.235-.043-.277-.15-.277-.278,0-.085.363-1.068.426-1.261a13.445,13.445,0,0,0,.514-2.884c.064-.513.427-.513.747-.513h.342c.621,0,.642.342.642.641A19.1,19.1,0,0,1,151.719,6.731Z"/></g></g></svg>