<svg xmlns="http://www.w3.org/2000/svg" viewBox="0 0 24 24"><title>search</title><g id="レイヤー_2" data-name="レイヤー 2"><g id="レイヤー_1-2" data-name="レイヤー 1"><path d="M3.5,15.563A8.154,8.154,0,0,0,9.5,18a8.183,8.183,0,0,0,6-2.5,8.183,8.183,0,0,0,2.5-6,8.183,8.183,0,0,0-2.5-6A8.183,8.183,0,0,0,9.5,1a8.183,8.183,0,0,0-6,2.5A8.183,8.183,0,0,0,1,9.5,8.256,8.256,0,0,0,3.5,15.563Zm20.5,7L22.563,24,15.5,16.938A9.282,9.282,0,0,1,9.5,19a9.155,9.155,0,0,1-6.719-2.781A9.155,9.155,0,0,1,0,9.5,9.155,9.155,0,0,1,2.781,2.781,9.155,9.155,0,0,1,9.5,0a9.155,9.155,0,0,1,6.719,2.781A9.155,9.155,0,0,1,19,9.5a9.2,9.2,0,0,1-2.062,5.938Z"/></g></g></svg>